/* XPM */
static char *bodo[] = {
/* columns rows colors chars-per-pixel */
"64 64 256 2 ",
"   c #050101",
".  c #0B0201",
"X  c #0B0509",
"o  c #130301",
"O  c #140B02",
"+  c #170A07",
"@  c #1C1504",
"#  c #1E1805",
"$  c #1D1509",
"%  c #1E1A09",
"&  c #161405",
"*  c #160C16",
"=  c #1A1219",
"-  c #0D0B11",
";  c #270907",
":  c #380A03",
">  c #211706",
",  c #211907",
"<  c #22150A",
"1  c #241C0B",
"2  c #2A1E0D",
"3  c #2B1806",
"4  c #361808",
"5  c #2A1C14",
"6  c #351E15",
"7  c #26210D",
"8  c #2A210E",
"9  c #2D200F",
"0  c #2E200E",
"q  c #2A210F",
"w  c #2A2110",
"e  c #2A2210",
"r  c #2D2010",
"t  c #2E2211",
"y  c #2D2311",
"u  c #292317",
"i  c #322413",
"p  c #322916",
"a  c #352D1A",
"s  c #392D1B",
"d  c #372618",
"f  c #3B311E",
"g  c #38321C",
"h  c #3E2008",
"j  c #1D1222",
"k  c #291B28",
"l  c #331F36",
"z  c #2E1C30",
"x  c #2B212B",
"c  c #352827",
"v  c #3E3623",
"b  c #3F3725",
"n  c #2F2135",
"m  c #3C2C3D",
"M  c #372639",
"N  c #3D323F",
"B  c #540200",
"V  c #5A0905",
"C  c #481708",
"Z  c #551709",
"A  c #4B140C",
"S  c #640201",
"D  c #6B0402",
"F  c #670A04",
"G  c #740201",
"H  c #7B0302",
"J  c #780A08",
"K  c #671508",
"L  c #78130A",
"P  c #7E1A14",
"I  c #492B17",
"U  c #562817",
"Y  c #43321B",
"T  c #46361D",
"R  c #56351B",
"E  c #52270D",
"W  c #6A261A",
"Q  c #74291B",
"!  c #423523",
"~  c #413925",
"^  c #453D2A",
"/  c #4A3727",
"(  c #593A25",
")  c #432C38",
"_  c #463637",
"`  c #4D302E",
"'  c #643927",
"]  c #733328",
"[  c #48402D",
"{  c #46412D",
"}  c #5A4634",
"|  c #59432A",
" . c #68452A",
".. c #76442A",
"X. c #684A36",
"o. c #774C38",
"O. c #6C533B",
"+. c #79573B",
"@. c #79532D",
"#. c #3D2B42",
"$. c #3F3342",
"%. c #422D46",
"&. c #453245",
"*. c #45344A",
"=. c #4A354D",
"-. c #493948",
";. c #553A4A",
":. c #4C3550",
">. c #4E3952",
",. c #4A3654",
"<. c #523C55",
"1. c #553E59",
"2. c #593E58",
"3. c #564159",
"4. c #5B445D",
"5. c #574357",
"6. c #544846",
"7. c #7A5A45",
"8. c #62485D",
"9. c #655956",
"0. c #6C4E48",
"q. c #79634E",
"w. c #5D4561",
"e. c #5F4963",
"r. c #634B64",
"t. c #644866",
"y. c #6A536B",
"u. c #67516A",
"i. c #705A6D",
"p. c #796B6E",
"a. c #840202",
"s. c #8B0201",
"d. c #860A06",
"f. c #930202",
"g. c #9B0302",
"h. c #960B08",
"j. c #98150D",
"k. c #8E1A14",
"l. c #A90604",
"z. c #B20301",
"x. c #BA0704",
"c. c #AA1714",
"v. c #A9170F",
"b. c #913B2F",
"n. c #C60E09",
"m. c #835B3C",
"M. c #875739",
"N. c #935B3E",
"B. c #8C4A34",
"V. c #AD543A",
"C. c #96623E",
"Z. c #8D6939",
"A. c #A7673D",
"S. c #BA6029",
"D. c #BF5C1E",
"F. c #D1692F",
"G. c #875D46",
"H. c #995A45",
"J. c #825C52",
"K. c #8A6343",
"L. c #84654C",
"P. c #89674B",
"I. c #936243",
"U. c #9C6C4C",
"Y. c #986848",
"T. c #9A714E",
"R. c #8C6B55",
"E. c #986C54",
"W. c #9C7253",
"Q. c #98755A",
"!. c #8B7155",
"~. c #A36D4C",
"^. c #A56945",
"/. c #B76A49",
"(. c #A6734C",
"). c #B7754C",
"_. c #A86D52",
"`. c #A37353",
"'. c #A97858",
"]. c #B67B56",
"[. c #B46856",
"{. c #90796E",
"}. c #A57C64",
"|. c #B97A64",
" X c #A77F70",
".X c #AC5B4E",
"XX c #C67C57",
"oX c #CF6D50",
"OX c #CF7E68",
"+X c #C05B41",
"@X c #D3843A",
"#X c #AC825E",
"$X c #B8855C",
"%X c #968677",
"&X c #A88368",
"*X c #B88766",
"=X c #B98C72",
"-X c #B79170",
";X c #948743",
":X c #C3855C",
">X c #C9875A",
",X c #C48B63",
"<X c #CC8C63",
"1X c #C48A68",
"2X c #D58A68",
"3X c #CB946B",
"4X c #C6946C",
"5X c #D39265",
"6X c #D8966C",
"7X c #C99777",
"8X c #D39B73",
"9X c #D89873",
"0X c #D88976",
"qX c #E5896A",
"wX c #E39A6C",
"eX c #E29C74",
"rX c #D9A478",
"tX c #C4A07E",
"yX c #E7A679",
"uX c #F2AA78",
"iX c #F8B37D",
"pX c #E8A250",
"aX c #FCC461",
"sX c #8C7B80",
"dX c #98898B",
"fX c #A59596",
"gX c #B1A59B",
"hX c #B8AAA8",
"jX c #D9AA85",
"kX c #D9B28E",
"lX c #E5AB83",
"zX c #EAAA86",
"xX c #E7B389",
"cX c #FBBB8A",
"vX c #F7B686",
"bX c #ECBB97",
"nX c #F8BD94",
"mX c #F7AE8A",
"MX c #C3B4B1",
"NX c #CB9B81",
"BX c #FDC38C",
"VX c #FDC493",
"CX c #FDCB9B",
"ZX c #F8C596",
"AX c #FDD59D",
"SX c #EEC193",
"DX c #D1C3BB",
"FX c #FDCDA6",
"GX c #FCD5A4",
"HX c #FFE2B0",
"JX c #C8BAC1",
"KX c #DACBC9",
"LX c #D9CCC4",
"PX c #E6D8D1",
"IX c #F7E9EA",
"UX c #ECDCE1",
/* pixels */
"i r 9 9 q e e e e e e e e e r r r i r r e e e e e 2 2 2 r r r r r r r r r q q q q e q 2 2 2 2 2 q e e q q q 2 < O .             ",
"i r 9 9 q 2 7 q e e e e e e 2 r r r r r e e e e e 2 2 2 r r r i i r r r r q q q q q 7 2 1 2 2 1 2 q q q q q q 1 O .             ",
"i 9 2 2 2 2 2 2 2 q q q 7 2 r r r r r r e e e e e q q r r r r r r r r 2 q q q q 2 2 2 1 1 1 1 1 1 2 2 2 q q q 1 & O             ",
"r 2 2 2 2 2 2 2 2 2 2 2 2 2 r r r i r t e e e e e e e r r r r 2 2 r r 2 q q e q 2 2 2 1 1 1 1 1 1 2 1 1 1 q q 1 1 O .           ",
"r 9 q q 2 2 2 2 1 1 1 2 2 q r r r r r e e e e e q q q q q q r r 2 r r 2 9 9 9 q 1 2 1 1 1 1 1 1 1 1 1 1 1 2 1 1 1 O .           ",
"i r q q q 2 2 2 1 1 1 1 2 2 2 q e e e e e e e 9 9 9 9 q q q q e 9 9 9 9 9 9 9 2 2 2 1 1 1 1 1 1 1 1 1 2 2 2 1 1 1 $ o .         ",
"i r q 7 7 2 2 1 1 1 1 1 1 2 2 q e e e e e e e 9 9 9 9 q q q q q 9 9 9 9 9 9 9 q 2 2 1 1 1 1 1 1 1 1 1 2 2 2 1 1 2 < O .         ",
"p t e 7 2 2 1 1 1 1 1 1 1 2 2 q e e q 2 q e e 9 9 9 9 q q q q q 9 9 9 9 9 9 9 q 2 2 1 1 1 1 1 1 1 1 1 1 2 2 2 2 2 1 & .         ",
"d i t q 2 2 2 1 1 1 1 1 1 1 1 2 2 2 2 2 2 e q 9 9 9 9 q q q q q 9 9 i i i t 9 9 2 2 2 1 1 1 1 1 1 1 1 1 1 1 1 1 1 , @ O         ",
"p i i 9 q 2 1 1 1 1 1 1 1 1 1 1 1 2 2 2 2 2 2 2 2 2 2 q 2 2 q 7 2 9 < ; ; @ , 2 5 1 2 1 1 1 1 1 1 1 1 , 1 1 1 1 1 1 1 O . .     ",
"i i i i r 2 1 1 1 1 1 1 1 1 1 1 2 2 2 2 2 2 2 2 2 2 2 2 2 7 7 2 6 4  .;XZ.@.( C 4 4 3 , 1 1 1 1 1 1 # O 1 1 1 1 1 1 1 $ . .     ",
"i i i i r 2 2 1 1 1 1 1 1 1 1 1 1 1 2 2 2 2 2 2 2 2 2 2 q 7 4 A K D V.aXpXpXV.F L L Z 4 3 1 1 % 1 1 # @ 1 1 1 , 1 1 1 < O .     ",
"i i i r r e 2 2 1 1 1 1 1 1 1 1 1 1 1 1 1 2 1 1 2 2 2 7 3 C K d.c.c.d.S.pXD.D.+Xj.f.h.L Z 4 3 1 % 3 1 , # , , , 1 1 1 1 $ .     ",
"i i r r r e q 2 1 1 1 1 1 1 1 1 1 1 1 1 1 1 2 2 2 2 7 3 Z h.z.z.n.+XoXpX@XF.pXoXH f.f.s.d.L A 3 # 1 1 1 , , , , 1 1 1 1 $ O .   ",
"i r r t e e e 2 1 1 1 1 1 1 1 1 1 1 1 1 1 1 1 2 2 1 3 K j.x.n.x.z.l.v.v.v.j.d.f.g.g.s.s.s.a.J C 3 1 1 1 , , # , # # # # # & O . ",
"i r r t e e e q 2 1 1 1 1 1 1 1 1 1 1 1 1 1 1 1 1 , Z x.n.x.x.x.x.x.z.z.z.z.z.l.l.l.g.f.s.a.H L A 3 % % # , , , # # # $ # # O . ",
"i r 9 q q 2 2 q 2 2 1 1 , , 1 1 , , , , 1 1 1 1 3 C v.n.n.x.x.x.l.l.l.l.l.l.l.l.l.l.l.g.f.a.a.a.F C 3 % # , > # , , , $ # # & O ",
"i r 9 q q 2 2 q 2 2 1 1 1 > > > # # # # , 1 1 1 3 k.n.x.x.z.l.g.g.g.g.g.g.g.g.g.g.g.g.g.g.s.a.a.G F C < # , > # # , , 1 1 , @ O ",
"i r 9 q q 2 2 2 2 2 1 1 1 , # # # # > @ , 3 1 # K x.x.l.f.H G G G H H G G G G G H s.f.g.g.f.s.a.H H V 3 # < $ , , # , 1 1 1 , & ",
"i r 9 q 7 2 1 2 1 2 1 1 1 , # # # # # # < % @ Z c.l.s.G P V.XX0X2X2XqXqXqX2XXX.Xb.P G s.f.f.s.s.a.a.D : > % % , , > 1 1 2 2 7 % ",
"i i 9 q 7 2 1 1 1 1 1 1 1 # # # , # # < < $ 4 k.l.a.F B.}.`.Y.1XvXiXuXuXiXvXlX7X*X*XH.L G a.s.s.s.a.G V 4 1 % , 1 1 1 e t y y e ",
"p i r q 7 2 1 1 2 1 1 1 1 1 1 1 , , # < & 3 k.l.a.V 7.7.I R  .m.6XVXcXmXvX3XM.E h I o.G.Q D a.s.s.a.H D C 1 1 2 1 2 2 t p p p p ",
"p i 9 q 7 2 1 1 1 1 1 1 1 1 1 1 , , > < & Z c.f.B W 7.R +.W.}.|.5XVXCXZXbX].Y.m.o.( 4 R o.] S a.s.a.H G A 2 2 e q q e y p s g g ",
"i r r e q 2 2 1 1 1 1 1 1 1 1 1 < < 1 > : k.l.G B o.m.(.3X<XXX<X6XyXnXnXyX,X1X$X,X8X$XM.'  .] S H H a.D B 6 y t t t t p a g v v ",
"i r r r e 2 2 1 1 1 1 1 1 1 1 1 1 1 < & Z c.s.S W U.,XyXuXwX>X).>X9XnXvX<XXX).].3X5X5X*X`...M.B.D a.a.J B 6 a d a d p p a v b ~ ",
"i i r r e e q 2 1 1 1 2 2 2 2 2 1 1 1 , k.l.d.V ~.].<XmXyX).).].).6XZX5X/.).).^.].:X).^.'.C.M.Y.] D H a.D C s s g g g s s g b ~ ",
"i i r r r e e q 2 2 2 2 7 2 2 2 2 2 1 4 k.l.S b.8X$XH.' C  .Y.^.>XvXBX>XA.5XM.M.U U ....M.^.C._._.K D a.J Z Y v v v v g g v v b ",
"i i i t t t t e q q q q q q e q e e 7 Z j.H B 9XxX^.E o.o.*X|./.eXBXZX5XA.].^.].U.G.M.C U C.].'.'...V J a.K I ! b ! v v v g v b ",
"i i i t y p p y t t t t t t t r t y e Q h.S Q nXzX).A.).].)./.<XvXZXCX6XA.).,X).$X].^.B.Q B.:X:X$XN.: F H G Z Y v ! b v v v v b ",
"i i i y p p p p p p p p p p p p p p i Q d.B B.BXiXuXwX5X>X5XyXvXcXZXCXeX).).<X6X3X5X>X:X:XXX>X>X:XY.6 C D H F I f ! b b b b v v ",
"i i i i p p a a a a a a a a p p d p i Q d.B H.cXvXBXVXVXVXCXcXuXcXGXVX6X).A.<XuXvXiXuXyXwX6X5X>X].H.( ; V J F E T ! v b ~ b v ~ ",
"i i i i p a s g g g g a a a a a a a p W J S B.cXBXAXHXGXAXVXvXcXVXAXCX9X<X5X).vXVXBXcXiXyXwX2X].U.G.U A ] D F Z T ~ ~ ~ ~ ~ ~ ~ ",
"i i i i p a s s s g g s s s s s s s a U L D b.vXBXVXAXAXCXvXzX].$XZXFX8XN._.^.5XZXCXBXiXuX6X,X(.I.I.E U W F D Z T b ~ ^ ^ ~ ~ ~ ",
"i i i i p a s f f f f f s s g s s s s I U B V.vXvXBXBXZXvXuXXXB.] `.=XU ; B.W :XzXSXVXvXuX5X$XC.N.U.R A .XL G A ! ^ ^ ^ [ ^ ^ ^ ",
"r i i i p d s v v v v v f v g g g g s f Y C |.yXiXiXcXvXyXyX6X2X9XY.E C E.|._.9XyXlXvXiXyX<X].M.m.W. .A zXb.S A / ^ ^ [ [ [ [ [ ",
"r i i i p d s ! ! ! ! ! ! v v v v g g v s ( kX5XyXyXuX9X5XrXrX9X4X7X1XNX7X*X*X1XjX8XyXyX5X].(.@.m.'...C bXOX: I { ^ ^ [ [ ^ ^ ^ ",
"r i i i p a s ! ! ! v ! ! v v v p a v ! d O.kX$X3X6X6X:X,X*X8XzXbXbXFXFXlX9X1X$X4X1X5X6X>X(.~...+.}. .: lX*X: [ ^ ^ ^ [ [ ^ ^ ^ ",
"r r i i p a f ! ! v v v v v v v a s ! ~ 6 &XSX$X3X6X,X].*X4XlXeXeXzXnXeX2X,X1X1X*X*X:X6X:X].T. .G.'.U ..zX_.R { ^ ^ ^ ^ ^ ^ ^ ^ ",
"r i i i p a f ! ! v v v v v v v b v v ~ i -XGX$X3X8X3X].'.N.N.].XX).)././.~...o.U.'.,X9X$X#XW.R G.G.M.9X:X'.( ^ ^ ^ ^ ^ ^ ^ ^ ^ ",
"r r i i d a f ! ! v v v v v b v v v v ~ p Q.HX4X*XrXrX3X~.E Y.=X}.=X&XQ.o. X XU Z '.rXrX$X#XU.E L.o.7XzX9XE.Y ~ ~ ~ ~ ~ ~ ~ ~ ~ ",
"r r i i p a f ! ! v v v v v b v v v f b ! / 7.+.-X4XrXrX<X1X' o . . o o . . + ; E.1XlXrX$X#Xm.C L.' G.7XI.( ! ~ ~ ~ ~ ~ ~ ~ ~ ~ ",
"r r i i p a f ! ! ! ! ! ! ! v v b b v b ~ v d Y &X-XrXrX5X9XB.; ; 6 ; o o < o I 6XwXyX8X*X#X( I !./ 3 / Y f ~ ~ ~ ~ ~ ~ ~ ~ ~ ~ ",
"2 2 r i p a f ! ! ! ! ! ! ! v v b b b b ~ b ~ Y q.*X3X8X8XzX[.B.[.0X|.B.H.OX[.V.6XyXlX4X*XT.4 ( P.2 d ~ Y ! v v b b b b v ~ ~ ~ ",
"r 2 r i p a f ! ! ! ! ! ! ! v v b b b b b b ~ s | }.*XrXrXvX>XV.oXoXOXOXqXoXV./.yXcXxX*X#X@.4 L.+.@ + b v f v v v v b b b b b b ",
"r r r i d a f ~ ! ! ! ! ! ! b b b b b b b v ~ f T Q.#X8XrXrXzXXX+XoXOXOXOX+X/.2XlXnXlX*X'.R I Q.| O   u b f v v v v b b b b b b ",
"r r r t p d g ! ! ! ! ! ! ! ~ ~ ~ ~ ! v v v v ~ s L.&X4XxXxXzXmXqX2X0X0XOXOX9X9XlXSXrX&XW.I X.R.I o   O v b v v v v v b b v v v ",
"q q e t p s g f f ~ ~ ~ ~ ~ ! ! ~ ~ ~ T v v v ~ a 0.&X-XxXbXmXzXyX9X3X3X8X9X5X6XxXSX4X'.7.I 7.L.I O   = x c i s v b b v v v v v ",
"q e q t p s v v f ~ ~ ~ ~ ! ~ ~ ~ ~ ~ ~ b b ~ ^ + ` -X#XkXSXnXvXzXlXlXlXrXyXyXlXxXjX#XW.' ( L.G.( < . k - p.q.^ c p s v b v v f ",
"q q q t p s v v v ~ ~ ~ ~ ! ~ ~ ~ ~ ~ ~ ~ ~ ^ x - ) &XW.7XbXZXVXnXnXnXnXnXmXzXmXxX7XR.+.I O.P.m.( 5   = - 9.IXLXgX{.6.v y y g v ",
"q q q t p s v v v ~ ~ ~ v ~ ! ! ~ ! ~ ~ v v c = n ;.}.W.W.jXbXZXZXCXFXFXZXvXmXzXjXY.+.R I L.P.m. .6   x n - 6.p.KXPXMXgX%X9.~ p ",
"q q q t p a v b b ~ v v T T ~ ~ ! v s v 9.dX-.k =.8.R.Q.+.Q.kXZXZXFXFXFXFXZXxXjX'.R ( 4 O.R.P.m.X.I + M $.j * z 6.LXUXDXLXKXMX%X",
"q q q t p a v b b ~ ~ ~ ~ ~ v c ! 0.%XDXIXJX<.M 1.r.J.Q.L. .!.kXbXbXxXxXZXxXNX&X6 2 4 ( L.R.P.+.o./ x &.#.m * *.x &.JXIXKXLXPXLX",
"q q q e y a v b b v ~ ~ v d c p.MXIXIXKXfXy.y.=.r.8.q.Q.!.7./ X.}.=X-XtX-X&X7.< . $ ! 7.P.P.P.m.+.' &.*.%.*.j m -.k m p.MXPXPXKX",
"q q q q t s v b b ~ s u 9.fXKXIXKXdX8.;.=.r.y.3.u.t.0.Q.R.P.7.I + 2 ! / 6 < . . O s O.7.K.K.G.m.7.X.) *.#.>.z M *.#.*.=.) i.MXUX",
"q q q 9 t s v ~ s d 0.MXIXUXfX9.m m <.4.r.w.y.w.w.2.0.Q.E.P.P.L.} p 5 < + + + @ i X.7.K.K.K.K.G.J.0.<.=.%.w.#.k *.M #.3.>.m &.p.",
"2 2 9 r i f s i 0.gXPXMX{.<.l m *.r.r.4.w.<.r.4.w.2.;.R.'.E.L.L.q.O.X.| | / / / } O.7.K.G.K.K.U.J.4.w.*.,.3.*.X M M n *.>.<.>.M ",
"2 2 9 r i 2 } gXDXdX;.m %.m %.=.4.4.r.w.r.r.3.<.t.>.2.0.&XW.P.K.L.R.7.O.O.X.X.O.+.7.G.K.G.I.T.Q.0.;.%.:.=.<.#.  k #.M M >.<.3.<.",
"2 2 i 2 1 %XhXp.) n &.3.1.M *.3.4.4.w.w.y.y.3.:.2.t.t._ Q.*X`.N.m.R.!.R.P.P.P.+.+.+.m.K.Y.~.'.R.;.:.<.<.<.4.&.  = m M M >.1.1.<.",
"2 r 2 1 fXsXx M =.<.<.3.:.M 1.w.4.4.4.w.r.r.<.:.4.t.t.;.7.4X*X`.K.m.K.Q.'.W.I.m.m.K.Y.W.'.'.*X7.) <.<.<.&.i.c   X m $.M =.<.3.<.",
"1 q @ gX{.k *.<.<.<.<.3.%.%.4.4.4.4.<.4.y.w.1.r.e.r.r.w.0.*X1X1X'.`.E.Y.T.T.Y.Y.U.W.'.'.].].'._ m m m x = = .     m -.l %.4.3.>.",
"q O {.dXk <.&.3.4.4.1.<.#.:.<.w.4.4.>.r.y.4.4.r.u.r.y.w.;.0.=X1X$X'.`.`.`.'.'.`.`.`.~.~.(.`.X.M n 5 *             k *.M M e.>.>.",
"O 9.hXc 5.*.&.3.<.1.4.=.%.=.<.4.3.4.%.&.5.r.3.2.<.2.r.8.r.;.7.*X$X'.~.Y.`.'.U.I.Y.U.Y.Y.`.J.` k * .               x M *.z 4.,.<.",
"^ gX-.-.3.m *.3.<.1.=.:.<.=.:.3.1.<.l >.4.M -.>.*.*.&.&.>.*.) 0.&X'.`.~.H.I.N.N.U.U.~.'.Q.` = X           X - = = n n *.z >.=.>.",
"gX9.n 3.>.m *.>.3.3.>.<.4.=.<.w.<.#.%.5.5.k = x M m &.%.m n n M ' }.'.`.U.M.M.I.~.U.(.*XX..     - * = = M $.$.$.m n M >.l #.=.,."
};
