/* XPM */
static char *bordo[] = {
/* columns rows colors chars-per-pixel */
"64 64 243 2 ",
"   c #050001",
".  c #0A0303",
"X  c #0C050A",
"o  c #150B03",
"O  c #170905",
"+  c #1D1505",
"@  c #1E1806",
"#  c #1D1509",
"$  c #1F1A09",
"%  c #160D15",
"&  c #1C121A",
"*  c #191014",
"=  c #250D08",
"-  c #231707",
";  c #211907",
":  c #251C0B",
">  c #2A1E0D",
",  c #261609",
"<  c #341A0A",
"1  c #381709",
"2  c #271911",
"3  c #311B11",
"4  c #370B03",
"5  c #27200D",
"6  c #2A210F",
"7  c #2C2211",
"8  c #282018",
"9  c #312413",
"0  c #322916",
"q  c #352C1A",
"w  c #392D1B",
"e  c #382418",
"r  c #3B311E",
"t  c #3B200F",
"y  c #261A26",
"u  c #2D1C30",
"i  c #2E212B",
"p  c #3E3623",
"a  c #3F3727",
"s  c #322335",
"d  c #36253A",
"f  c #3B2B3D",
"g  c #382838",
"h  c #382C2B",
"j  c #5A0A03",
"k  c #481608",
"l  c #56170A",
"z  c #491108",
"x  c #6C0502",
"c  c #6B0C05",
"v  c #630803",
"b  c #7C0402",
"n  c #750804",
"m  c #661309",
"M  c #761109",
"N  c #741C11",
"B  c #492A18",
"V  c #552716",
"C  c #42331E",
"Z  c #49371F",
"A  c #57341D",
"S  c #56230E",
"D  c #6D2B1A",
"F  c #413523",
"G  c #413924",
"H  c #453D2A",
"J  c #4B3827",
"K  c #5B3A23",
"L  c #573926",
"P  c #483538",
"I  c #4F3130",
"U  c #653A25",
"Y  c #763824",
"T  c #622E20",
"R  c #48402D",
"E  c #5C412C",
"W  c #5C4535",
"Q  c #4F4438",
"!  c #68432B",
"~  c #76452C",
"^  c #694B37",
"/  c #784B34",
"(  c #6D513A",
")  c #74533B",
"_  c #7A553B",
"`  c #74532E",
"'  c #3E2D41",
"]  c #412E43",
"[  c #442E4A",
"{  c #433245",
"}  c #463349",
"|  c #4A354C",
" . c #4D3B4C",
".. c #493643",
"X. c #583E48",
"o. c #4E3951",
"O. c #4C3650",
"+. c #523D55",
"@. c #553F59",
"#. c #564059",
"$. c #5B445D",
"%. c #5A4557",
"&. c #594C50",
"*. c #694C4B",
"=. c #665647",
"-. c #7D5B43",
";. c #775645",
":. c #695B59",
">. c #6E5259",
",. c #766252",
"<. c #5E4660",
"1. c #5F4861",
"2. c #634B64",
"3. c #674E68",
"4. c #6B5468",
"5. c #755F73",
"6. c #7A6B6F",
"7. c #840302",
"8. c #8B0201",
"9. c #850C08",
"0. c #940301",
"q. c #9B0402",
"w. c #990C07",
"e. c #96140D",
"r. c #8E1A11",
"t. c #AB0503",
"y. c #A60604",
"u. c #B40503",
"i. c #B90905",
"p. c #A8160F",
"a. c #8F2518",
"s. c #AB2216",
"d. c #8A3A2A",
"f. c #C20A07",
"g. c #874A35",
"h. c #835A3D",
"j. c #885639",
"k. c #95593B",
"l. c #944A35",
"z. c #AC5639",
"x. c #92653D",
"c. c #BF652D",
"v. c #CB7636",
"b. c #C44333",
"n. c #855D44",
"m. c #985B43",
"M. c #B15B42",
"N. c #8B6144",
"B. c #84634A",
"V. c #8A664C",
"C. c #886449",
"Z. c #956444",
"A. c #9B6B4B",
"S. c #966649",
"D. c #9A714A",
"F. c #8A6854",
"G. c #946D53",
"H. c #9B6E53",
"J. c #9B7255",
"K. c #99755B",
"L. c #A66A49",
"P. c #A4714E",
"I. c #AE734D",
"U. c #B4744C",
"Y. c #A37353",
"T. c #AB7554",
"R. c #AC7956",
"E. c #A67A5B",
"W. c #B47A54",
"Q. c #BC7B54",
"!. c #B57957",
"~. c #B76B51",
"^. c #9B7961",
"/. c #857674",
"(. c #A57B63",
"). c #B47861",
"_. c #C77959",
"`. c #CF6D4D",
"'. c #D87E61",
"]. c #C37D69",
"[. c #B9825B",
"{. c #AE815B",
"}. c #92837D",
"|. c #AC8365",
" X c #B38262",
".X c #BB8562",
"XX c #BA8A68",
"oX c #BB9071",
"OX c #C4845C",
"+X c #C9885E",
"@X c #DB8956",
"#X c #E4A44D",
"$X c #C48B64",
"%X c #CB8B63",
"&X c #C48D6A",
"*X c #C88865",
"=X c #D68967",
"-X c #CB936C",
";X c #C3926C",
":X c #D3946B",
">X c #D9966D",
",X c #D7966B",
"<X c #C99774",
"1X c #DC9C73",
"2X c #D59C76",
"3X c #E19E74",
"4X c #E19E6F",
"5X c #D9A279",
"6X c #E3A47B",
"7X c #E9A779",
"8X c #F3AD7C",
"9X c #F5B17F",
"0X c #8B7980",
"qX c #978886",
"wX c #A59592",
"eX c #B7A8A6",
"rX c #BDADB1",
"tX c #AFA299",
"yX c #D8AA87",
"uX c #D3A889",
"iX c #ECAD84",
"pX c #E4AA84",
"aX c #E9B38B",
"sX c #F4B383",
"dX c #F9BB8C",
"fX c #F7B789",
"gX c #EBBA93",
"hX c #F6BD93",
"jX c #F1AB81",
"kX c #C8B9B8",
"lX c #C4B6AE",
"zX c #FCC28D",
"xX c #FBC393",
"cX c #F8C699",
"vX c #FDD19D",
"bX c #D0C2BC",
"nX c #FBCDA4",
"mX c #FDD5A4",
"MX c #CEBEC0",
"NX c #D8CAC5",
"BX c #DFD0CE",
"VX c #E3D4D3",
"CX c #E1D2CD",
/* pixels */
"9 7 6 6 6 7 6 7 7 7 7 7 7 7 7 7 7 7 7 7 7 7 7 7 6 > > 7 7 7 7 7 7 9 9 7 7 6 6 6 6 6 5 > > > > > 6 7 7 6 6 6 > ; o .             ",
"9 7 6 6 > > 5 6 6 7 7 7 7 6 6 7 7 7 7 7 7 7 7 7 6 > > 6 7 7 7 7 9 7 7 7 7 6 6 6 5 6 > > : > : : > 6 6 6 6 6 6 : o .             ",
"9 6 > > > > > > > 6 6 6 6 6 7 7 7 7 7 7 7 7 7 7 6 6 6 6 7 7 7 7 > 7 7 6 6 6 6 6 > > > : : : : : : > > > 6 6 6 : + o             ",
"7 > > > > > > > > > > > > 6 7 7 > 7 7 7 7 7 7 7 7 7 7 7 7 7 7 > > 7 7 > > 6 6 6 > > > : : : : : : > : : > 6 6 : : o .           ",
"7 6 6 6 > > > > : : : > > > 7 6 6 7 7 7 7 7 7 6 7 6 7 6 6 6 6 7 6 6 7 6 6 6 6 > > > : : : : : : : : : : > > > : : o .           ",
"9 7 6 6 6 > > : : : : : > > > 6 7 7 7 7 7 7 6 6 6 6 6 6 6 6 6 7 7 6 6 6 6 6 6 > > > : : : : : : : : : : > > : > > # o .         ",
"9 7 7 6 6 > > : : : : : : > > 6 7 7 7 6 6 7 7 6 6 6 6 6 6 6 6 6 6 6 6 6 6 6 > > > > : : : : : : : : : : > > > > > # o .         ",
"0 7 7 6 > > : : : : : : : > > 6 7 6 > > 6 7 7 6 6 6 6 6 6 6 6 6 6 6 6 6 6 6 > > > > : : : : : : : : : : : : > > : : + .         ",
"0 9 7 6 > > : : : : : : : : : > > > > > 6 7 6 6 6 6 6 6 6 6 6 6 6 6 > > 6 6 6 > > > > : : : : : : : : : : : : : : ; @ o         ",
"0 9 9 7 6 > : : : : : : : : : : > > > > > > > > > > > > > > 6 6 > > > , > > > < > > > : : : : : : : : ; : : : : : : : o .       ",
"9 9 9 7 7 > : : : : : : : : : : > > > > > > > > > > > 3 > 5 6 > < 1 ! D.x.` K k 1 < , : : : : : : : @ + : : : : : : : # . .     ",
"9 9 9 7 7 > > : : : : : : : : : : : > > > > > > > > > > 6 > < l m M z.#X#X#Xz.M M M l < , : : : : : @ + : : : : : : : # o .     ",
"9 9 9 7 7 6 6 > : : : : : : : : : : : : : > > > > > > > > k c 9.p.p.a.v.#Xv.v.z.e.0.9.M l 1 , : $ : : ; ; ; ; : : : : : + . .   ",
"9 9 9 7 7 7 6 > : : : : : : : : : : : : : > > > > > 6 < l 9.t.u.s.b.`.@Xv.v.`.M.9.0.0.8.b m k , : : : : ; ; ; ; : : : : @ o . . ",
"9 9 7 7 7 7 6 > : : : : : : : : : : : : : : : : > : < m w.u.i.i.u.i.p.s.s.p.e.w.q.0.8.8.8.7.c k < : : : ; ; ; ; ; ; @ @ @ + o . ",
"7 7 7 7 7 7 6 > > : : : : : : : : : : : : : : : : , m t.f.i.i.i.i.u.u.u.u.u.t.t.t.y.q.0.8.7.b M z , : $ @ ; ; ; ; @ @ $ @ @ o . ",
"9 7 7 6 6 > 6 6 > : : : : ; : : : : : : : : : : , l e.f.f.i.u.u.t.t.t.t.t.t.t.y.y.y.y.q.0.7.7.7.c k > : @ ; ; ; ; ; @ # @ @ + o ",
"9 7 6 6 6 > > 6 > : : : : ; ; ; @ @ @ @ : : : : < r.f.i.u.t.y.q.0.0.0.0.0.0.q.0.0.q.q.q.q.8.8.7.b v k , @ @ ; ; ; ; ; : : : @ o ",
"9 7 6 6 6 > > > > > : : : ; ; ; @ @ @ @ ; , : , m i.u.y.0.8.7.9.9.9.9.9.9.9.b b 7.8.0.0.0.0.8.7.b b j < @ $ ; ; ; @ : : : : : + ",
"9 7 7 6 6 > : : : : : : : ; ; ; @ @ @ @ @ # ; l p.t.0.b a.l.~.*X=X=X=X=X=X=X_.M.d.r.b 8.8.0.8.8.7.b x 4 , $ $ ; ; ; : : > > 5 : ",
"9 9 7 6 5 > : : : : : : : : : ; ; @ @ ; # # 1 r.y.7.m g.H.H.S.XX7X8X8X8X9X8X5XXX(.E.l.N b 7.8.8.8.7.b j 1 : : : : : : 6 7 7 7 7 ",
"0 9 7 6 5 > : : > : : : : : : : ; ; @ ; # 1 N w.7.m / ) K K / S.:XdXdXfXfX-XZ.A B L ^ j.D c 7.8.8.7.b x z > : : : : 6 7 0 0 0 0 ",
"9 9 7 6 6 > : : > : : : : : : : ; @ @ ; ; l p.8.j T ) K _ H.E.).:XdXcXxXaX.XS.h./ U B K ~ Y c b 7.7.b n z > 6 6 6 6 7 7 0 q w r ",
"9 7 7 7 6 > > : : : : : : : : : : : : ; 1 r.q.b l ( h.P.&X%XOX%X,X7XdXdX6X$X[.Q.[.&XR.j.! ! Y c b b 7.x z < 7 7 7 7 7 0 q r p p ",
"9 9 7 7 7 > > : : : : : : : : : : : : ; l p.8.x Y A.[.5X7X>XOXQ.+X1XdXsX=X_.Q.Q.%X:X%X[.A./ j.d.c b 7.n j 1 q 0 q q q 0 q p p F ",
"9 9 7 7 7 7 > > : : : > > > : : : : : , r.y.7.m L.!.*X6X,XW.U.U.Q.1XdX:XU.Q.U.L.R.!.I.L.L.k.j.Z.Y x b b c k w w r r r w w p p G ",
"9 9 7 7 7 7 7 6 > > > > 5 5 > > > > : 1 r.q.x g.&X[.Z.~ V / S.L.%XsXfX+XI.OXk.j.U U ~ ~ j.S.Z.P.Z.N x 7.n l C p p p p p p p p p ",
"9 9 9 7 7 7 7 7 6 6 6 6 6 6 6 6 6 6 > l e.b m *X6XL.D g.g.!.!.W.3XdXxX:XL.Q.L.T.A.n.j.S D x.R.W.T.~ j n b m B F p F p p p r p p ",
"9 9 9 7 7 0 7 7 7 7 7 7 7 7 7 7 7 7 9 N 9.x Y iX8XQ.L.I.U.W.!.=XsXxXxX>XL.U.OXW.Q.W.Z.g.Y k.[.OX!.j.z v b n l C p F p p p p p p ",
"9 9 9 9 0 0 0 0 0 0 0 0 0 0 0 0 0 0 t D 9.v k.fXsX7X4X:X%X:X7XsXfXcXxX3XU.U.%X:X:X:X+XOXQ._.+X+X[.Z.B z x n m B F F p p p p p p ",
"9 9 9 9 0 0 q q q q q q 0 0 q q q q e D n v m.sXdXzXzXzXxXxXfXsXdXvXxX3XQ.I.%X7XsX9X7X6X4X>X:X+XW.N.L 4 j n x V C F p p G p p G ",
"9 9 9 9 0 q q w w r r q q q q q q q w N n x l.sXzXvXmXmXvXxXfXfXdXvXcX3X%X+XQ.sXxXxXfX9X7X1X-X!.P.h.V k D x v l C G G G G G G G ",
"9 9 9 9 0 w w w w r r w q q w w q w r V c x l.jXzXxXvXvXxXfX7X_.$XgXcX-Xm.L.L.:XdXcXzXsX7X,X$XP.S.h.A V D c x l C F H H H G G G ",
"9 9 9 9 0 w w r r r r r r r r r q q w B S j z.8XfXzXzXxXfX7X_.k.g.T. XU k g.Y OX7XhXxXfX7X:X[.Z.x.S.K V m.N n l J H H H H H H H ",
"9 9 9 9 0 q r p p p p r r r p r r r w w C S !.7X8XsXsXsX6X6X,X%X&XA.U A F.(.T.:X6XpXfXsX6X%XI.j.h.S.! V <Xd.v k J H H R R H H H ",
"7 9 9 9 0 q r p p F F F F p p p r r r p r E uX,X6X7X7X1X:X2X5X2X<X<X&X<X<XXX.X&X5X2X6X7X:XQ.P.j.h.J.~ V yX).z B H H H H R H H H ",
"7 9 9 9 0 w r F F F F F F p p p q q r F C ;.uX&X:X>X,X$X&X&X1XpXaXgXcXcXpX2X$X.X;X&X-X>X+XU.L./ _ J.! S 2X).k J H H H H H H H H ",
"7 7 9 9 9 w r F F F p p p p p p q r p F w K.aX$X-X:X%X[..X&X2X3X3XiXhX3X=X*X$X.X.X.XOX:X+XW.A.~ n.G.U g.2XT.L H H H H H H H H H ",
"9 9 9 9 0 w r F F F p p p p p p p p p p r oXcX;X-X2X-X[.T.Z.Z.W._.Q.Q.U.L.P.j.j.S.R.$X,XOXW.A.U -.n.h.-X*XT.L H H H H H H H H H ",
"7 7 9 9 0 w r F F p p p p p p p p p p p r K.nX;X;X2X5X-XL.Y Z.|.K.(.(.F.) ^.G.K A T.1X5X.X{.S.A -._ oXpX-XS.J G G H H G G G G G ",
"7 7 9 9 0 w r F F F p p p p F p p p p p F L n.h.XX;X5X1X*X!.U = O O O O o O = 1 S.&X6X5X.XR.h.B -.! n.XXS.K F G G G G G G G G G ",
"7 7 7 9 0 w r F F F F F F F p p F p p p F p r J ^.oX5X5X,X:Xg.4 3 B 3 O = 2 = B *X1X6X<X.XE.U A B.J e J J F F F G G G G G G G G ",
"7 7 7 9 0 w r F F F F F F F p F F p p p G p F F ,.|.-X5X1X7XU.l.L.].~.l.m.).L.m.>X7X6X-X|.S.B K -.e e F C F p p p p p p p G G G ",
"7 7 7 9 0 w r F F F F F F F p p p p F p p p F r W E.XX2X5XiX%Xz.`.`.'.'.=X`.M.~.5XfXpXXXE./ t -.( , O p p p p p p p p p p p p p ",
"7 7 7 9 0 w w F F F F F F F p p p p p p p p p r J G. X<X5X5X6X_.`.`.'.=X'.`.~.=XpXdX6X.XJ.K J V.E O   8 p r p p p p p p p p p p ",
"6 7 7 7 0 q r F F F F F F F F F F F p F p p p F F B.|.<XpXaXiXjX>X=X=X=X'.*X:X1XpXhX2X|.G.A ^ B.A o   * r p p p p p p p p p p p ",
"6 6 6 7 0 q r p p G G G G G F F F F F F F p p G w =.|.oXaXgXsXiX6X1X-X:X:X:X:X1XiXgX<XE._ L -.n.B O   * 8 p r p p p p p p p p p ",
"6 6 6 7 0 w p p p G G G G G F F F F F G p p G p 2 I |.|.yXgXdXfXiXpXpXpX5X6X6X6XaXyX|.G.! ! B.n.L , . & & :.,.Q G p p p p p p p ",
"6 6 6 7 0 q p p p G G G G G F F F F G G G p G i & P ^.E.<XgXxXxXhXhXhXhXhXsXiXaXpX<XG._ A ( C.h.K 3 . % & &.NXlXtX/.=.H w w r p ",
"6 6 6 7 7 q p p F G G G G G G G F F F F F G h y s X.^.J.K.uXgXcXcXcXnXnXcXfXsXaX2XG.) A L ,.C.h.! 9 X y i & &.6.kXNXlXtX}.,.R r ",
"6 6 6 7 7 q p p p G G G F F G G G G F H ,.}. .u } 1.F.K.B.K.yXcXcXnXnXnXnXcXaX5XJ.K A B ( F.V.h.^ B * s f y & g &.lXVXNXbXbXeXqX",
"6 6 6 7 0 q p p p G G G p F F F P :.qXlXVXeX$.f +.2.B.K.B.^ K.uXgXgXaXgXgXaX<XK.B < t L B.F.V.h.) J i ' ' f & f d &.rXVXNXNXBXNX",
"6 6 6 7 9 w p p p G G G p p P /.eXBXBXMXwX5.3.O.$.2.,.K.F.;.L ( ^.|.XXoXoX^.;.3 o - G ;.C.V.C.h.) W ..} { ] y f { i  .6.eXNXVXCX",
"6 6 6 7 7 q p p p F p a :.wXkXCXkXqX4.$.#.2.4.$.2.2.;.K.G.V.;.J 2 e J J w 2 O . O w ^ -.N.N.n.h.-.^ ..} [ O.s f } f } o. .6.rXCX",
"6 6 6 7 9 w p F p H :.eXCXNXwX4.....+.$.1.1.4.1.1.$.*.K.H.V.V.-.E w 0 2 - # # # e ! -.C.N.n.N.N.n.*.+.} [ #.' y { f ' o.| } o.6.",
"> > 6 7 7 w r F =.wXkXeX0X%.] ] | $.2.$.1.#.2.$.1.@.X.F.E.G.V.C.,.( W L L J J J E ) -.N.N.N.Z.A.,.%.@.} O.@.{ % g d s } o.o.o.] ",
"> > 6 7 7 w =.wXeXqX&. .| ] ] | #.$.2.1.2.2.$.+.1.+.%.*.(.J.V.N.C.F.-.) ( ^ ^ ^ ) _ n.n.N.S.A.J.*.+.} O. .+.f X y f d f o.+.@.+.",
"> > 7 6 q /.wX6. .] | +.o.f } #.$.$.1.2.4.2.$.o.@.$.$.X.G. XY.N.n.V.G.F.V.B.B._ _ -.h.N.A.J.Y.F.X.o.+.+.+.#.' X & f d d o.+.+.+.",
"> > > q /.6.P ] |  .+.+.O.' +.$.$.$.$.1.2.2.+.+.$.2.2.%.n.XX.XY.Z.n.C.J.E.J.S.h.h.N.S.J.Y.R.E.;.P  .+. .} >.i . X f ' d | +.#.+.",
": > 0 qX6.f { o.+.+.+.+.} ] #.$.$.$.+.1.4.1.#.2.2.2.2.$.*. X&X.XR.Y.H.S.A.H.A.A.A.J.Y.T.T.W.J.P P f g i & & X   X g } d ] #.@.o.",
": > 6./.P | } +.#.#.@.+.] | +.$.$.$.+.$.4.1.$.2.2.2.2.$.%.;. X&X[.R.Y.Y.Y.Y.Y.Y.Y.Y.P.P.P.A.^ g s y * X         . u { f f $.+.o.",
"> =.qX.. .} } #.+.@.@.| ] | +.$.$.$.] | #.$.#.+.+.#.1.$.$.X.-.|.[.R.Y.A.Y.Y.A.Z.A.A.A.A.J.-.I y % .             X u d ] s #.o.+.",
"Q qX&.| +.{ } #.+.+.O.o.+.| o.@.+.o.f | %.f { | | | } } | } P ;.(.E.Y.A.Z.Z.k.m.A.A.P.T.G.J 2 X         . X % & y s s } s | | o.",
"wX:.f o.o.' | +.#.#.o.+.@.| +.$.o.] ] +.#.i y u f f { { f s s g ^ K.Y.Y.A.j.j.Z.Y.H.Y.E.^ O . . X % % & g f f f f s d } d ' | | "
};
