/* XPM */
static char *bayc_es_iran_el_em_spanel[] = {
/* columns rows colors chars-per-pixel */
"64 64 225 2 ",
"   c #0A0504",
".  c #0E0907",
"X  c #140E0C",
"o  c #150C06",
"O  c #16110E",
"+  c #1B130C",
"@  c #161011",
"#  c #1A1512",
"$  c #1E1915",
"%  c #1F1B18",
"&  c #150F12",
"*  c #22170D",
"=  c #26190E",
"-  c #291A0C",
";  c #251B13",
":  c #2A1E12",
">  c #221D1A",
",  c #34220E",
"<  c #2E2114",
"1  c #26221E",
"2  c #2D241C",
"3  c #322316",
"4  c #32261B",
"5  c #36291C",
"6  c #3B2B1C",
"7  c #382816",
"8  c #2A2622",
"9  c #2E2A26",
"0  c #2F2C29",
"q  c #342B23",
"w  c #3C2E20",
"e  c #322D2A",
"r  c #3D3123",
"t  c #35312D",
"y  c #3D342C",
"u  c #3A3532",
"i  c #422F1C",
"p  c #40301F",
"a  c #433323",
"s  c #4A3623",
"d  c #423528",
"f  c #4B3B2C",
"g  c #483928",
"h  c #523E2B",
"j  c #523C27",
"k  c #473C32",
"l  c #422F20",
"z  c #55412D",
"x  c #5A442D",
"c  c #4D4134",
"v  c #4D453B",
"b  c #544434",
"n  c #5A4632",
"m  c #5E4A34",
"M  c #53493D",
"N  c #5E4E3C",
"B  c #504639",
"V  c #634D35",
"C  c #634E3A",
"Z  c #66513B",
"A  c #6B543C",
"S  c #675137",
"D  c #70583F",
"F  c #534C44",
"G  c #594E44",
"H  c #5B5144",
"J  c #5C554B",
"K  c #5F584E",
"L  c #575147",
"P  c #635343",
"I  c #6C5742",
"U  c #6C5944",
"Y  c #63594D",
"T  c #6B5D4D",
"R  c #63574A",
"E  c #735C43",
"W  c #745E48",
"Q  c #645C52",
"!  c #6B5D50",
"~  c #796147",
"^  c #75614B",
"/  c #7C644C",
"(  c #7D684F",
")  c #6C6254",
"_  c #6C645B",
"`  c #67625A",
"'  c #736554",
"]  c #756856",
"[  c #716658",
"{  c #756A5C",
"}  c #7A6D5C",
"|  c #7B6753",
" . c #7D705F",
".. c #68604F",
"X. c #766D62",
"o. c #796E61",
"O. c #7C7264",
"+. c #7C746A",
"@. c #777169",
"#. c #81694E",
"$. c #846B53",
"%. c #886D54",
"&. c #836F58",
"*. c #8C745B",
"=. c #88735A",
"-. c #92795F",
";. c #91765C",
":. c #827565",
">. c #867966",
",. c #8B7A64",
"<. c #817669",
"1. c #857A6B",
"2. c #8A7E6D",
"3. c #947B62",
"4. c #967E67",
"5. c #847D72",
"6. c #8A7F70",
"7. c #8C816E",
"8. c #8E8266",
"9. c #9A8166",
"0. c #93846C",
"q. c #9B846C",
"w. c #96876C",
"e. c #8D8373",
"r. c #8D867B",
"t. c #8E897E",
"y. c #868077",
"u. c #918675",
"i. c #948876",
"p. c #9A8A72",
"a. c #918778",
"s. c #958B7C",
"d. c #998E7D",
"f. c #9B8771",
"g. c #9B907E",
"h. c #9F9076",
"j. c #A0876E",
"k. c #A18A6E",
"l. c #A48C73",
"z. c #A98F76",
"x. c #A28F79",
"c. c #AA9076",
"v. c #A4947C",
"b. c #AB947C",
"n. c #A6967B",
"m. c #B1967D",
"M. c #8E8982",
"N. c #958E82",
"B. c #998F81",
"V. c #969084",
"C. c #9C9283",
"Z. c #9D9589",
"A. c #9F998D",
"S. c #96918A",
"D. c #9E9991",
"F. c #A19686",
"G. c #A49986",
"H. c #AB9B82",
"J. c #A19789",
"K. c #A49A8C",
"L. c #A99D8C",
"P. c #A99580",
"I. c #B49B82",
"U. c #B89E86",
"Y. c #B09780",
"T. c #A59D92",
"R. c #A99F91",
"E. c #A39F99",
"W. c #AFA087",
"Q. c #AEA18E",
"!. c #B4A58C",
"~. c #BBA38B",
"^. c #B7A88F",
"/. c #A7A194",
"(. c #ABA295",
"). c #A7A299",
"_. c #ACA69A",
"`. c #AEA99E",
"'. c #B1A696",
"]. c #BBAC93",
"[. c #B1A799",
"{. c #B3AA9D",
"}. c #BBAE9C",
"|. c #B6A891",
" X c #BDB09E",
".X c #AFABA3",
"XX c #B4ADA2",
"oX c #B8AFA2",
"OX c #B2AEA8",
"+X c #B7B0A5",
"@X c #BAB2A5",
"#X c #BCB5AA",
"$X c #BFB9AD",
"%X c #B7B2A8",
"&X c #BDBAB1",
"*X c #C0A78F",
"=X c #C2AA92",
"-X c #C8AE97",
";X c #C3B39B",
":X c #C9B69E",
">X c #C4B5A3",
",X c #C9BAA5",
"<X c #C0B7AB",
"1X c #C2BAAE",
"2X c #CDBDAB",
"3X c #C9B8A3",
"4X c #C4BCB1",
"5X c #C8BEB0",
"6X c #D1B9A3",
"7X c #D1C1AE",
"8X c #CAC1B6",
"9X c #CDC6BA",
"0X c #CFC8BD",
"qX c #C7C0B4",
"wX c #D2C5B3",
"eX c #D0C6BB",
"rX c #D2C9BD",
"tX c #D8C9B6",
"yX c #CFC1AF",
"uX c #D4CDC3",
"iX c #D6D1C6",
"pX c #D8D1C6",
"aX c #D7D2C8",
"sX c #DAD4C9",
"dX c #E3DCD3",
/* pixels */
"% 1 1 8 8 1 > t > O O O # # O O > t # O O O # O O # e % # # # # # # # > 9 # # # # # # # # 8 9 # # $ $ $ # # % 9 > # # # # # # # ",
"` 5.5.r.y.+.@.#X@.) ! ) _ ` ) Q y.OXQ Y Y Y Q Y Q _ `._ Q Q Q Q K Y K +.E.K K K J J G F J M.D.L L Y K J J L K V.X.J F L J K Q F ",
"{ d.a.C.C.e.1.9Xr.1.2.e.2.e.e.2.R.qX1.<.<.<.O.<.1.e.$X<.O.O.{ } ' { { e.oX[ [ ' ) ) T T ) A._.Q T ) ) ) ....) T.5.) T Q ) ) _ K ",
"{ d.s.g.g.u.2.qXu.2.0.d.u.s.i.u.[.9Xu.e.7.u.2.e.u.s.1X2.1.>.O.:. .:. .s.+X{ } } ] ' ' ' ' K.`.) ) ] ] ' ) ) ) K.2.) T ) ' ) ) Y ",
"{ d.s.g.g.u.2.9Xa.2.u.g.u.d.s.i.{.eXs.i.u.d.u.s.C.C.5Xu.i.s.2.1.>.1.1.C.@XO.O.:.:. .} } } R.XX[ {  .} } { { { T.e.[ ' ' { { { Q ",
"{ C.d.C.C.e.2.8Xa.2.i.C.u.d.s.s.{.eXa.s.u.B.u.s.C.C.qXs.d.C.1.) ! O.u.(.1X1.1.e.e.1.O.1.1.).+Xo.+.1.1.1.:.O.+./.r.@.o.{ o.} O.) ",
"{ N.d.C.C.u.6.9Xs.2.s.C.s.d.d.s.{.9Xs.s.u.d.u.d.C.C.qXs.d.2.b 5 3 a R a.<X2.1.s.d.e.<.e.e._.#X1.e.s.a.u.2.<.e.`.C.6.<.<.<.O.1.{ ",
"{ N.d.C.C.u.6.eXs.2.s.C.s.g.d.d.{.9Xs.s.i.B.u.d.C.C.9Xs.:.b 6 3 : = = J {.O.1.s.d.e.1.u.u._.#X2.u.d.d.s.2.<.a.oXK.s.2.2.e.1.e.<.",
"X.C.d.C.C.u.6.eXs.7.s.C.s.d.d.d.{.9Xs.s.s.C.u.d.C.C.5X2.z 7 5 3 3 < = F K.k } s.d.e.2.s.u._.#X2.u.C.d.d.e.1.d.{.A.d.2.2.e.1.a.1.",
"X.C.d.C.C.u.6.5Xi.7.d.F.s.d.d.d.{.5Xs.d.s.C.u.d.F.C.5X) 6 , 3 5 6 6 5 G A.: b i.d.e.2.s.u._.#X2.u.C.C.C.e.1.B.XXK.B.2.2.e.1.s.5.",
"X.B.d.C.C.u.6.qXa.7.d.F.s.g.d.d.oX4Xd.d.s.C.u.d.F.Z.4XZ i , - 6 h n h ! S.; 5 } C.e.2.s.a._.#Xe.s.F.F.C.e.2.C.T.Z.C.2.e.e.2.s.5.",
"X.B.d.C.C.u.e.qXi.7.d.J.d.C.d.d.oX4Xd.d.s.C.u.d.F.J.1XN s x Z I *.3.E } S.* 3 H d.e.2.s.s.`.#Xe.s.F.F.C.e.2.C.`.K.C.e.e.e.2.N.5.",
"X.C.d.C.C.u.6.qXs.7.d.J.B.C.d.d.oX1Xd.C.s.C.u.B.F.J.1XN U l.z.c.m.m.=.>.K.; 3 g 2.e.2.s.s.`.#Xe.s.F.F.C.e.2.C.oXT.C.e.e.e.2.C.y.",
"X.C.d.C.C.u.e.9Xs.7.d.J.C.C.C.C.{.1XB.C.s.C.s.C.J.J.4XN q.~.m.~.*XU.l.s.E.3 3 6 } u.e.s.s.{.#Xe.s.J.J.C.2.2.C.oX/.C.e.e.e.2.C.5.",
"o.C.d.C.C.u.e.rXs.7.d.J.B.C.C.C.oX5XB.C.d.F.s.C.J.K.#XP U.*XI.=X-X~.b.F.E.q 5 4 R u.e.s.s.XX$Xe.s.J.J.C.e.2.C.`.T.C.e.e.e.7.C.5.",
"X.C.C.C.C.u.e.rXs.7.d.J.B.C.C.d.#X5XB.C.d.C.s.C.K.K.oXT =X~.U.-X-X~.b.F.K.4 3 < M e.e.s.s.oX$Xe.d.F.F.F.e.e.C.`./.C.e.u.e.e.C.5.",
"X.C.C.C.C.s.6.uXs.7.d.J.C.F.C.C.#XqXC.C.d.F.i.F.K.K.oX} *XU.=X6X=Xj.-.s.Z.: ; ; g e.e.s.s.oX1Xe.d.J.G.F.u.e.C.XX_.C.e.u.e.e.C.y.",
"X.C.C.C.C.a.2.uXd.7.d.J.C.F.C.C.1X8XC.C.d.F.s.F.K.K.J.| =.( Y.H./ j V :.T.: + : r 1.e.s.s.oX4Xe.d.G.J.F.e.e.C.XX_.C.e.u.e.e.C.e.",
"X.C.C.F.C.u.6.rXs.7.d.J.C.F.C.C.1X9XC.C.d.F.s.F.K.R.@XU j s Z A V E E ' /.4 O ; < O.e.s.d.+X4Xe.d.J.J.C.e.e.C.XX_.C.e.u.e.e.C.e.",
"X.C.C.C.C.s.e.uXs.7.d.J.C.F.C.C.1X5XB.F.d.F.s.J.L.R.#XI ( $.E ( A W Z } '.d + * < } e.d.d.oX#Xe.d.J.J.C.e.e.Z.OX`.Z.u.u.e.a.Z.e.",
"X.C.C.C.C.s.e.uXd.e.d.G.C.F.C.C.1X5XC.J.d.J.d.J.K.K.<XU A E D ( Z x j } @Xf - 3 w 1.e.d.d.oX#Xe.B.J.C.C.e.a.Z._._.C.a.i.e.a.Z.e.",
"X.Z.C.C.C.s.e.pXd.e.C.J.C.F.C.C.5XqXC.J.C.J.d.K.K.K.#XC z / %.3.E D E 2.@XN s C P u.e.d.d.oX1Xa.C.J.Z.C.e.a.Z.XX`.Z.a.i.e.a.Z.e.",
"X.J.C.F.C.s.u.pXd.u.C.K.C.F.F.J.5XqXC.J.C.K.C.K.K.R.#X( / / 3.q.( W $.d.@X/ A &.&.u.u.d.B.+X1Xa.C.J.J.C.e.a.J.+X`.Z.s.a.e.s.K.r.",
"@.J.C.F.F.s.u.pXC.u.C.K.F.K.J.J.qXqXC.J.C.K.C.K.K.R.#X*.-.*.q.l.;.=.3.G. X( E =.| e.i.d.C.@X1Xa.C.K.J.C.e.s.K.OX`.Z.a.a.u.d.K.r.",
"@.J.C.J.F.d.a.pXC.u.C.K.C.K.J.K.8X5XZ.K.C.K.C.K.K./.1Xq.m.z.b.z.9.b.Y.Q.}./ %.*.W e.s.C.C.@X1Xa.C.R.K.Z.e.s.K.XX{.Z.a.s.a.V.R.r.",
"@.K.C.J.F.d.a.aXC.u.C.L.C.J.J.K.9X5XZ.R.C.R.C.K.R./.qXP.6X*X=Xb.3.b.~.Q.[.^ %.=.' a.a.C.C.@X$Xa.Z.R.R.J.a.s.K.XX`.K.s.s.a.C.R.r.",
"@.K.C.K.F.B.a.sXC.s.C.L.C.K.K.K.9X9XK.R.J.R.C.K.R._.9XI.:Xb.3.$./ j.c.G.(.W %.$.} C.a.C.C.oX$Xa.Z.R.R.J.a.s.K.XX`.T.d.d.a.C.R.t.",
"@.J.C.K.J.C.s.pXC.s.F.R.J.K.K.R.0X9XK.R.J.R.C.R.(._.rXb.~.z.$./ $.9.9.F.[./ 4.U :.C.s.C.C.+X#Xa.Z.R.R.J.a.s.K.XX{.T.d.d.a.C.R.s.",
"+.K.F.K.J.C.d.iXC.d.J.(.J.R.K.R.0XqXK.R.J.R.C.R.(._.0Xx.b.l.l.z.4.-.3.F.[.W $.f e.C.N.Z.J.oX@Xs.Z.R.R.J.a.s.R.XX{.T.d.d.a.C.R.s.",
"+.K.F.K.J.C.d.uXF.d.K.(.J.R.K.(.rXqXK.R.J.(.J.(./._.9Xx.b.3.l.m.j.-.3.C.[.V : q C.C.N.Z.Z.oX#Xd.J.R.R.K.a.s.K.XXoXT.d.d.d.C.R.t.",
"@.K.J.K.J.C.N.uXC.d.K./.K.R.K./.rXqXK.R.J.(.J.(._.{.9Xd.b.*.3.3.$.$.9.d.[.V = L R.C.N.Z.C.oX$Xs.K.E.R.K.s.d.R.oXXXR.d.d.d.Z.R.t.",
"+.K.J.K.J.C.B.iXC.d.K./.K.R.R./.uXqXK.R.K.(.J._._.{.9Xd.H.q.%.=.#.%.3.s._.C 5 1.R.C.B.J.C.#X1XN.K./.R.K.s.N.R.oXoXR.B.N.d.K./.s.",
"+.K.J.K.J.C.V.pXC.d.K._.R.(.R./.uXqXK./.K.(.J._._.{.0XC.P.n.3.q.3.l.,.u.(.C h B.R.C.d.J.Z.#X1Xd.R./.R.K.s.N.R.oXoXR.C.C.B.K./.s.",
"+.K.J.K.J.C.C.sXF.g.R._.R./.(./.uXqXR./.K.(.J._.[.XXeXC.F.H.l.Y.n.b.&.u.(.Z ' /.(.C.B.J.J.$X4XN.R.(.R.K.N.C./.oX@XR.C.B.B.K./.s.",
"+.K.J.L.K.C.C.sXF.g.R._.R./.(._.uXqXR./.K.(.J.[.{.oXrXJ.K.n.l.U.H.p.( 2._.Z Z o.F.C.C.K.J.#X4XV.K.(.R.K.N.B./.+X#XE.C.B.C.K./.N.",
"+.K.J.R.K.C.C.iXJ.C./._.R./.(._.uXqXR._.R.(.J.[.[.oXrXZ.<.0.9.l.l.*.E >.[.Z i = H [ e.K.J.#X4XV.K./.R.K.N.N./.+X#XR.C.B.C.K./.s.",
"+.K.J.(.K.C.C.iXJ.C.R._.R./.(._.pXqXR./.R.(.J.[.[.XXqX_ 4 ' &.&.*.E Z 1.[.Z s - - = d +.N.#X4XN.K././.K.N.C./.+X$XR.B.N.C.K./.s.",
"+.K.J.Q.K.C.C.iXJ.C.(._.R.(.R._.pX5XK.(.L.'.K.[.'.(.{.q * P Z n n n C <.(.S h : : ; ; 2 c T.4XN.K././.K.N.B.(.@X1X/.B.N.C.K./.t.",
"+.K.K.(.K.C.Z.aXJ.F.(._./.(.(._.sX5XK.(.R.'.L.'.u.{ /.q : U A x j x Z <.(.V x 3 : ; ; ; + +.4XN.R././.K.N.N.(.+X$X/.B.d.C.K./.s.",
"+.K.K.Q.K.C.J.sXJ.F.(._./._./._.sX5XR./.R.'.F.:.f R /.4 : E ~ E V V I <.L.V m 3 : ; ; ; + +.).+.R././.K.N.C./.oX$X/.C.d.C.K./.t.",
"+.K.J.(.K.C.J.iXJ.F.(._./._.(.{.sX5X/.(.R.K.' f 6 R R.3 3 ^ / %.( E U +.K.V C 5 : ; ; ; + +.S.y s._./.K.N.V./.+X4X/.C.d.C.K./.N.",
"+.K.K.(.K.C.J.uXF.F./._./._._.{.pX5XR.(.K.} f a a R R.3 6 %.#.*.3.( I O.L.Z C 5 : : ; ; + +.S.; M K./.K.N.V./.oX$X/.B.s.Z.R._.N.",
"+.K.K.(.L.C.A.iXJ.F./.[./.[._.{.sX1X/._.2.b a i a o.{.r s -.=.$.*.( A O.L.A m 3 : : : : + +.S.* < <./.K.N.N./.oX$X/.C.d.Z.R._.N.",
"+.K.K.(.R.C.K.iXJ.J.(.[.(.[._.{.sX4X(.K.P T ' P ' @XrXe.4.9.-./ #.E C O.L.A z : < 3 5 H g y.E.d r } J.K.N.N./.oX#X/.C.N.Z./._.N.",
"+.R.K.'.R.C.K.iXJ.K.(.[.(.[.[.{.sX1X(.i.2.>X>X,X2X1XuX(.!.k.9.~ E S V O.L.A s 5 ) :.>.d.>./.@X7.>.>.s.K.N.N./.oX#X/.C.N.Z./._.N.",
"+.R.K.'.(.C.R.iXJ.K._.[.(.{.{.oXsX1X_.'.8X2X2X2X7X@X9XQ.].q.9.$.W E C @.G.V I >.G.n.n.v.i.{.#Xv.w.8.0.J.N.N./.oX#X/.C.N.Z./._.N.",
"1.R.R._.(.C.(.iXJ.K._.[._.{.[.oXdX1X[.7XtX2X,X2X,X}.8X!.}.f.3.=.E A n @.K.Z p.v.H.n.n.n.v.oX>Xn.0.8.>.Z.C.N./.oX@X/.C.V.Z./.`.V.",
"1.R.R._.R.C.(.iXJ.K._.[._.{.{.oXdX1X[.wXtX2X,X,X;X[.wX!.;XH.*.*.E x h @.C.U v.P.H.H.H.H.H.oX<Xv.w.w.>.C.C.N./.XX#X/.C.N.A./.`.N.",
"1.R.R.(.R.C./.iXJ.K.[.[._.{.{.oXdX4X[.2X7X7X2X,X].[.tX!.:X].-.$./ n f X.C.=.H.H.!.H.!.!.L.{.<Xp.p.w.O.C.C.N./.{.#X/.Z.V.K./.`.V.",
"5.R.R._.(.C._.uXJ.K.[.{._.{.{.oXdX1X[.2X2XwX2X2X|.}.tX!.;X;Xp.( ~ V s } L.p.H.H.].H.!.!.W.[.#Xi.h.w.} d.C.d./.`.#X).S.N.A./.`.V.",
"5.R.R._.(.C._.uXJ.R.[.{._.{.{.+XdX1X'.2X,X7X7X,XL.}.tX!.;X;X^.%./ Z h o.}.v.H.W.}.n.!.!.!._.+Xw.x.8.O.e.C.d./.`.$X).S.V.A./._.V.",
"5.R.R.'.(.C._.iXJ.R.{.oX[.{.{.+XdX1X[.3X3X7X7X>XG.{.tX!.=X;X;X3.( A z O.+XH.H.!.;Xn.^.!.!._.+Xw.h.,.<.<.B.d./.XX$X_.S.V.K./._.V.",
"5.R./.[.(.C.{.sXK.R.{.oX[.oX{.@XdX1X{.3X;X2X2X}.G.[.wX!.].;X3Xz.~ D b <.+XW.v.].].n.].!.!./.+X0.p.,.O._ N.d._.XX&X_.S.N.T.).`.V.",
"5./.(.[.(.C.oXpXK.(.{.{.[.oXoX#XdX1X(.}.}.,X,X}.G.[.wX!.!.].:X^.^ A m u.#XH.v.:X!.n.].W.|.R.+X0.p.7.R H d.d.)..X&X_.S.N.T.)._.N.",
"5././.[.(.C.oXuXK.(.{.oX[.oX+X#XdX1XF.2.}.>X>X XK.{.eX!.!.].:X;X,.A ^ C.@Xv.H.,XH.v.^.W.|.K.+Xw.p.} 5 v V.d.)..X&X_.S.N.T.)._.N.",
"1././.[.(.C.oXuXK.(.oX@X{.@X+X$XdX1XK.N 7.>XF.' H 1.1Xi.f.v.!.!.b.*.,.F.oXd.^.3Xv.n.!.H.Q.S.+X0.:.k + v C.N.)..X&X_.Z.N.T._._.N.",
"5./.(.[.(.C.@XuXK._.@X@X{.@X@X$XdX1X(.N f i.u.6 + L J.6 i ^ p.,.9.c.p.(.[.g.}.>X1.>.} c M @.XX<.B # + M Z.N._..X&X_.C.N.R._._.N.",
"5./.(.[._.J.@XuXK._.@X@X{.@X@X1XdX1X_.P 6 p g 5 + F Z.: s q.n.3.=.$.' <.s.T o.' 5 3 5 ; ; ` ).k + O O F Z.V._.OX&X_.C.N.R._._.N.",
"5._.(.[._.J.#XuXR.[.@X@XoX@X@X4XdX#X'.P 6 3 < 3 + F S.: C l.k.-.3.E a _ +.= 3 3 * < 3 ; ; ` N.O X & @ F Z.V._.OX&X_.Z.N.R._.`.C.",
"5._.(.[._.J.#XrX(.[.#X#XoX@X#X4XdX$X[.P a 3 : < + F S.6 ,.z.z.-.W W a ` +.* 3 < * < 6 - = Q M.# X @ O v Z.V._.OX&X_.Z.N.R._._.N.",
"5._._.[._.J.1X0X(.[.#X#XoX@X#X4XdX1X{.T a 5 < < + F N.k x.m.I.3.A A b _ 5.* 3 : - b | h - Q M.# X @ X v C.V._.OX&X`.Z.N.R._.`.C.",
"y._._.{.{.A.1X9X/.{.#X#XXX#X#X4XdX<X{.) a 5 3 4 # F S.b c.c.c.$.W m 5 ` 5.; < a m w.4.U r Q S.% X X X v C.N._.OX4X.XA.V.T._..XS.",
"+.T.T.E.T.S.%X4XD.).`.`./..X.X+XuX{./...q 2 2 2 # F M.H s.0.2.T N f o J @.# < R P 1.} P c Q 5.% X X O v t.r.D.).OXT.V.r.S.T.E.M.",
"1 e e e e 9 u u e e t t e t t t k t e > X o o o . % 8 > q 2 2 > # X   % 1   . 1 ; > > # # > 8 .       # 8 8 9 e t e 9 8 9 0 e 8 "
};
