/* XPM */
static char *lusamut[] = {
/* columns rows colors chars-per-pixel */
"64 64 239 2 ",
"   c #010100",
".  c #090703",
"X  c #0D0B05",
"o  c #0E0D09",
"O  c #140300",
"+  c #120C04",
"@  c #1C0D01",
"#  c #100F0B",
"$  c #1C1003",
"%  c #14120D",
"&  c #18140D",
"*  c #161409",
"=  c #151310",
"-  c #191613",
";  c #1B1915",
":  c #1F1D19",
">  c #2D1D0D",
",  c #221607",
"<  c #211F19",
"1  c #241D14",
"2  c #301F0F",
"3  c #2E230F",
"4  c #32220E",
"5  c #25221B",
"6  c #2A261B",
"7  c #332212",
"8  c #332C16",
"9  c #3D341B",
"0  c #3A3217",
"q  c #2D2A24",
"w  c #322D26",
"e  c #36332C",
"r  c #3A352C",
"t  c #3B3627",
"y  c #3A3631",
"u  c #3E3B36",
"i  c #373530",
"p  c #43391F",
"a  c #443D27",
"s  c #413D36",
"d  c #403934",
"f  c #4A432C",
"g  c #47412A",
"h  c #53482E",
"j  c #464236",
"k  c #464239",
"l  c #4A453A",
"z  c #4D493C",
"x  c #4C4635",
"c  c #524D3D",
"v  c #544D35",
"b  c #59523A",
"n  c #655A3C",
"m  c #785936",
"M  c #564E42",
"N  c #5A5545",
"B  c #4C4842",
"V  c #615B4B",
"C  c #655E42",
"Z  c #6A6347",
"A  c #736A4C",
"S  c #766947",
"D  c #6A6554",
"F  c #746D52",
"G  c #766D59",
"H  c #7B7254",
"J  c #7A745B",
"K  c #7D7048",
"L  c #7B7564",
"P  c #756F62",
"I  c #82613B",
"U  c #805B44",
"Y  c #837B5D",
"T  c #897A59",
"R  c #967A59",
"E  c #886B47",
"W  c #A1694B",
"Q  c #847D65",
"!  c #937E69",
"~  c #C07D61",
"^  c #95825D",
"/  c #8E8056",
"(  c #A7835F",
")  c #8C846A",
"_  c #898368",
"`  c #988A69",
"'  c #8B8673",
"]  c #958D73",
"[  c #948C7B",
"{  c #978C76",
"}  c #9B9175",
"|  c #9C947B",
" . c #9B967D",
".. c #A78965",
"X. c #B38765",
"o. c #A6926E",
"O. c #A18D77",
"+. c #A49473",
"@. c #A2957C",
"#. c #A49A7C",
"$. c #AC9C7B",
"%. c #AC9874",
"&. c #B79B77",
"*. c #B5A27C",
"=. c #BBA57E",
"-. c #C99E7C",
";. c #9C9483",
":. c #999484",
">. c #A59C83",
",. c #AA9E82",
"<. c #A49C8C",
"1. c #A39685",
"2. c #B79D84",
"3. c #A79D91",
"4. c #ACA185",
"5. c #ADA48A",
"6. c #A6A088",
"7. c #B3A585",
"8. c #B2A68B",
"9. c #B4A98D",
"0. c #BBAD8C",
"q. c #BCA685",
"w. c #BBB08F",
"e. c #ADA493",
"r. c #ACA692",
"t. c #B4AB92",
"y. c #BAAE93",
"u. c #B4AC9B",
"i. c #B5AA99",
"p. c #BCB195",
"a. c #BDB39A",
"s. c #B9B29A",
"d. c #BBB3A3",
"f. c #BCB4A8",
"g. c #B9AFA4",
"h. c #D59D81",
"j. c #C5AB85",
"k. c #C9B38C",
"l. c #D5B78C",
"z. c #C4AB93",
"x. c #C3B595",
"c. c #CBB692",
"v. c #CCB996",
"b. c #C2B69B",
"n. c #C5B99D",
"m. c #CBBC9C",
"M. c #C5B895",
"N. c #D3BC94",
"B. c #D2BE9B",
"V. c #D9BB94",
"C. c #D1A787",
"Z. c #C2B6A3",
"A. c #C5BBA2",
"S. c #CABDA3",
"D. c #C5BBAA",
"F. c #CABEAA",
"G. c #C1B7AC",
"H. c #C5BCB2",
"J. c #C8BEB7",
"K. c #D2BDAE",
"L. c #CDC09E",
"P. c #D3C29E",
"I. c #DBC29C",
"U. c #D9C197",
"Y. c #E5C99E",
"T. c #CDC1A5",
"R. c #CDC2AB",
"E. c #D2C4A4",
"W. c #DAC6A2",
"Q. c #DDC9A5",
"!. c #D2C5AB",
"~. c #D5C9AD",
"^. c #DACDAC",
"/. c #D7C7A8",
"(. c #DDD0AE",
"). c #CDC3B2",
"_. c #CDC3BC",
"`. c #CEC9BA",
"'. c #D2C6B2",
"]. c #D5C9B3",
"[. c #DACDB4",
"{. c #D5CBB9",
"}. c #DACDBB",
"|. c #DEC3B0",
" X c #DED1B3",
".X c #DDD1BC",
"XX c #E4CCA5",
"oX c #EACDA4",
"OX c #E3CDA9",
"+X c #E6C8A7",
"@X c #E6D1AC",
"#X c #ECD3AC",
"$X c #EED1A5",
"%X c #E3D4B4",
"&X c #EAD5B3",
"*X c #E5D8B6",
"=X c #ECD9B6",
"-X c #E2D5BC",
";X c #E6D9BC",
":X c #EBDBBC",
">X c #F3DAB4",
",X c #F2DDBA",
"<X c #F4D8B3",
"1X c #ECD4AE",
"2X c #F7E2BE",
"3X c #DED3C2",
"4X c #DFD7C7",
"5X c #D4CBC0",
"6X c #E2D5C4",
"7X c #E6D9C5",
"8X c #EADCC5",
"9X c #E5DACA",
"0X c #EADDCC",
"qX c #E5D7C4",
"wX c #F2DCC5",
"eX c #EADED1",
"rX c #EEE1CD",
"tX c #EBE1C9",
"yX c #F3E2C4",
"uX c #F2E4CB",
"iX c #F9E9CE",
"pX c #FAE5C6",
"aX c #EDE2D2",
"sX c #EEE4D9",
"dX c #F3E5D4",
"fX c #F5E9D5",
"gX c #F3E6DA",
"hX c #F5EADB",
"jX c #F9ECDD",
"kX c #F9ECD5",
"lX c #FAF1DD",
"zX c #F5EBE1",
"xX c #FAEEE2",
"cX c #FAEEE2",
"vX c #FCEEE9",
"bX c #FDF1E6",
"nX c #FBF1E3",
"mX c #FEF3E9",
"MX c #FDF8EC",
/* pixels */
"                                                                                                                                ",
". = = & - - = ; ; ; ; ; ; ; ; ; ; ; ; ; - ; - - ; ; - ; ; ; ; ; ; - = = & = = - ; ; ; - - ; -         X - & # & & & & & & & & . ",
"w e.d.Z.D.D.d.)._._._._._.G._._._._._._.H.5X_._._._.H._._._.5XJ.J._.H.G.g.u.i.i.f.G.f.f.J._.3.1 X X . j e.<.[ [ ' ' } @.#.1.1.e ",
"s 0XjXjXjXhX9XnXbXbXbXbXbXaXxXcXbXbXbXcXzXmXmXmXmXmXgXbXbXbXbXzXzXMXmXbXjXxXcXjXgXaXaXeX9X9Xg.> + O + N '.!.S.b.5.4.x.v.B.B.m.s ",
"s 0XfXfXfXdX6XjXxXxXcXcXxX0XjXxXxXbXnXxXgXcXvXvXvXbXgXcXxXcXcXgXgXbXvXcXgXzXbXbXcXgXxXzXgXeXZ.> O O O l Z.!.S.n.x.9.j.c.v.N.v.s ",
"u 9XfXhXhXdX6XjXxXcXbXbXnXeXjXxXjXnXnXjXgXbXvXvXbXbXgXbXbXbXbXgXgXcXcXcXgXjXcXxXzXdXjXgXdXdXF.2 O O O d e.y.y.b.m.7.z.c.v.N.v.j ",
"u 9XfXhXjXfX9XxXnXbXbXbXjX0XjXjXxXxXjX9X0XzXgXgXzXgXeXgXzXzXzXeXaXjXjXjXaXdXjXjXjXaXgXgXaX8XA.7 O O O c Z.n.9.8.9.4.x.v.m.B.m.k ",
"s 0XjXjXjX0X6XdXsXsX9X9X6X9XdXdX9XdXaX4X0XsXeXeXzXzXgXgXeXeXgXeXeX0X6X0X6X6X9X6XqX6X0X0X3X.XZ.2 O O @ c D.!.n.n.9.4.M.v.m.B.m.k ",
"u 6X0X0X8XqXqX0X0X6X0XdXjXxXxXxXeXjXxXzXjXcXhXjXmXbXbXbXzXzXbXbXxXjXeXjXhXgX8X0XdXrX9X{.}.{.8.> O O @ x s.!.n.n.9.9.M.v.m.B.m.k ",
"u 3X].0XfXfXfXjXjX0XdXjXjXxXxXjXaXxXxXxXwX+XwXjXmXbXbXbXzXjXbXxXjXjXaXhXgXgXaXaXfXfXdX.XrX0XZ.2 O O @ f e.b.y.p.7.9.M.v.B.P.m.k ",
"u 9X6XrXfXfXfXjXjX0XdXfXjXjXjXjXaXhXjXdXh.~ 2.0XmXmXbXbXgXgXbXxXxXjXeXjXhXhXeXeXhXgXrX}.0X0XZ.7 O O @ c A.S.A.8.7.9.b.m.P.P.m.k ",
"u 9X6X0XdXdXfXjXhX8XdXhXhXjXxXxX0XhXxX|.W W U 3.mXmXbXbXgXsXbXbXbXjXeXjXjXhX6XeXjXhXrX'.0XrXA.7 O O @ b D.A.T.y.y.y.b.m.m.P.m.l ",
"u 6X6XaXgXfXfXjXjX9XgXjXjXxXcXxX9XhXjXq.E X.R O.eXaXeX9X4X0XgXgXaX9X}.0X8X.XF.{.9X6X].Z.'.}.4.> O O @ x d.n.E.b.n.y.b.m.m.P.m.l ",
"u 9X6XrXfXfXfXfXfX6XdXhXfXdXaXaX6X9X{.! X.C.&.F.9X.X4X9X0X0XaX4X6X6X6X9X3X}.}.3X6X{.~.A.A.Z.} > O O @ x e.y.y.8.9.7.x.m.P.P.m.l ",
"u 6X.XqX0X8X6X3X}.'.6X0XqX3X6X0XaXsX'.` &.V.B.fXxX0XsXjXjXjXhX4XaXjXjXjX0XaXfXfXfX8X8X8X-XR.y.7 O O @ M A.S.b.b.y.,.x.m.m.P.L.l ",
"y F.S.R.!.R.}.6X0XaXgXhX0XgXjXnXbXnX.XR ..&.z.jXxXaXgXjXjXjXgX3XaXjXjXjX0XaXhXfXfXqX0X0X-X{.x.7 O O @ N F.R.n.n.p.8.b.m.L.P.L.l ",
"w A.-X8XuXqXdXjXjXxXxXnXeXzXbXbXbXxX{.+.R o./.xXcXsXgXxXzXgXhX3X0XxXjXjX9XeXjXgXfX6XdXaX.X'.y.4 O O @ c a.T.p.m.y.4.n.L.L.P.m.l ",
"u 9XkXjXiXuXuXyXkXjXxXxXaXxXbXbXxXfX8XQ.X.E }.bXcXgXjXbXgX3XeX}.0XxXjXjX3XqXdXeX6XR.-X.XF.Z.#.> O O @ x e.a.9.y.8.#.b.L.P.E.T.l ",
"s 0XjXfX%X^.B.,XiXjXxXbXsXxXbXxXuXyXuX,XY.&.0XbXxXsXgXjXaX6X{.).3X9X6X6X{.}.{.'.'.{.'.'.}.{.8.> O O @ V ).!.S.n.A.y.b.m.L.E.T.l ",
"u qXfXdX^.x.$.>XiXjXnXbXaXjXnXrX:X:X*XT.1XV.qXeXeX9X3X3X9X}.6X9X0X0X6XaXdXfX8X0XdX0XqX.X8X8Xy.4 O O @ N ).R.S.n.A.t.b.S.L.E.m.j ",
"s 9XfXaXQ.%Xv.>XiXxXnXnX0X0XtX%XQ.&XyX-X&XXX;X4X4XH.f.).{..XhXjXjXhX0XfXfXfX8XaXdXrX7X.X9X8Xy.4 O O @ N F.S.b.t.9.4.b.m.m.E.L.j ",
"s 9XfXdXQ.%Xx.>X8X.X}.3X.X-X XE.B.%XyXiX=XE.!..Xu.d.e.D.{.6XjXjXhXgX0XdXdXfX8XrXrXrX-X}.qX6X8.4 O O @ x <.8.t.t.5.5.n.m.P.E.L.j ",
"u 6XrX{.c.*Xm.>XwX{.9XhXjX8X^.B.q.&XyXyXyXyXtX7Xu.H.i.d.D.9XjXjXjXhX0XdXfXfX0X0X0X6XR.Z.F.A.} 2 O O @ V A.n.n.n.p.p.S.m.E.E.L.j ",
"i ).{.R.v.%XE.>XpX0XdXxXfX%X/.0.o.@XyXyXyXuXfXyX'.`.f.f.d.9XxXjXjXdXqX0XqX3X{.{.{.'.}.-X}.R.8.4 O O $ D D.b.b.b.y.y.m.m.T.E.S.k ",
"u 9X6X.XP.*XE.1XpX8XaXhX-XQ.x.T ` Q.,XyXwXyXtX8X.X{.i.i.e.).9X6X3X6X6X9X6X6X0X0X0X}.0X0X.X!.4.4 O O , V Z.y.9.9.y.9.A.m.m.E.S.k ",
"u 6XqX}.v.%Xn.#XpX8XaX0XE.Q.+.n *.E.:XyXyXyX7X[..XD.<.6.<.D.0X6X6XhXfXfXdX0XdX0XqX{.0X0X6X!.,.4 O O , V y.y.8.y.b.p.S.m.L.P.S.k ",
"u 6XqX{.c.%Xx.oXpX8XdX}.7.W.v.E =.I.=XyXyXuX-X^.qXd.;.:.;.D.gX0X0XhXhXfXrX8XaX0XqX.XrXrX.XA.| 4 O O , G R.S.a.p.b.p.m.m.L.P.S.k ",
"u 6X0X].c.Q.M.oXpXqX0XS.T q.I...&.N.OX:XyXuXR.T.8XD.<.:.i.G.dX9X0XhXhXhXqXqXdX0X6X]..X}.[.!.>.4 O O , L R.S.a.9.4.8.m.m.m.P.S.k ",
"u 9X0XR.0.@Xm.XX>XF.).a.A T o.( &.C.V.=X8X8X,.x.8X3Xd.;.1.e.aX9X0XjXgXfX{.{..X.X.X.X].].6X-X4.7 O O $ G T.b.8.5.4.9.m.m.m.E.S.k ",
"u 3X[.8.o.OXn.XX,XqX0X8X4.H T m X.h.-.#X*X~.Y 7.8X3Xu.[ [ 1.0X6X3XqX6X9X3XqX.X8X0X8X[.[..X-X$.3 O O $ F s.y.n.t.9.9.n.m.m.T.S.k ",
"e D.!.n.$.W.b.I.,XuXdXrXS.Q ,.S I X.X.B.;Xt.F $.;X.Xi.[ [ [ {.}.3X6X9XhXhXfXqX8X0XqX[.].-X-X+.4 @ O $ L S.n.A.9.,.,.n.n.m.E.S.j ",
"u 6XdX.X7.I.b.V.>X0XrXrX}.{  .T E E ..W.;Xn.J ,.%XqXu.;.;.[ }.dXdX0X0XhXfXdX6XqX0X0X].R.'.!.` a , O $ Q A.p.9.#.#.4.b.n.m.E.m.j ",
"u 9XdX.X*.I.b.V.>X0XrXdX9Xr.} +.&.R &.B. Xn.D } :X7Xu.;.[ ;.3XdXdX0X0XhXfXdX6XqXqX[.A.A.R.R.,.b 3 O + G t.,.>.5.p.n.m.n.m.S.m.j ",
"u 9XdX.X*.W.b.N.>X8XrXdX0Xa.} *.v.j.E.*X^.y.D | E.].D.[ [ 1.}.aXdX0X8XfX0X6X'.F.F.!.}..X[.!.7.Z h > , G 5.y.t.4.4.8.b.S.n.m.n.j ",
"s qXuX.X7.I.b.c.>X!.R.'.{.d.] $.c.m.~.~.;.r 6 z y.z.D l M P ).dX0X}.{.{.F.R.}..X-X].-X-X].].5.H A v 0 { S.n.9.} ] ) ` p.p.b.b.s ",
"u 6XuX.X7.I.m.c.>XT.R.6X0XqX8.0.T.!.!.J 1 + & d 8Xz.5 & ; e 3.{.R.).'.}..X.X8X-X-X'.-X-X].n.@.Y J H Z >.F.y.,.@.,.4.} 8.,.9.a.u ",
"u }.6XA.` N.m.k.>X X6XfXdXqX5.p.A.6.G ; + + X w K.2.1 # & 5 [ R.F.8X0X0X6X}.8X-X-X!.[.!.S.S.>.Q Q _ ) >.t.| ] } | t.p.t.4.b.b.s ",
"e A.'.s.+.N.Q.U.>X%X.XdXdX6X6.J t ; + o # * . o 1.@.- X . * L '.F.0X9X0X6X}.8X-X].S.S.~.[. X5.} #.#.>.,.#.@.@.} } #.>.,.>.p.n.k ",
"y }.-XZ.#.V.>X#X>X%X}.dXdX.X{ 5 * o o * * #     d N + . . X V F.F.0X0X0X}.F.].R.!..X!.]..X[.t.4.9.y.y.y.y.p.t.t.t.y.y.9.#.#.5.k ",
"u .XqXR.#.k.c.j.#X%X{.aXaX{._ & X = % & & X     . +     . X M Z.D.0X6X{.S.'.]..X-X-XR.]..X].t.5.s.n.A.n.b.b.b.b.b.p.a.y.9.0.b.k ",
"u 3X8XR.#.=._ R $X%XR.6X{.u.D % * ; - ; - .         % = . X c i.a.'.R.{.6X0X}.}.-X-XA.R.n.b.t.t.a.S.R.S.A.n.n.b.b.b.b.x.n.E.~.l ",
"u 6X0XD.#.j.8.$.oX^.n.F.R.<.Q 6 X - ; ; - .   % - 1 s q . X c y.R.{.{.0X0X9X{.}..X!.p.y.8.s.a.Z.R.S.F.S.!.T.n.n.S.m.n.m.^./.^.z ",
"u 3XqXt.H &.y.$.Y.*X[.8X9Xu.' j * - ; ; ; r c D c t x e . X M Z.qX.X'.9X9X8X].!.A.y.a.y.n.6XsXhXaX~.R.R.~.T.S.S.T.!./.Q.E.^.~.l ",
"y F.F.n.| *.n.$.Y.=X7X0X9Xt._ b * & < : : N D Z t 8 f 6 . X V Z.qX}.).qX.X].a.t.y.a.n.n.R..XaXqXgX[.~.].~.!.!.~.T.~.~. X/.(.^.l ",
"e ).6X.X9.*.m.,.V.=X7X0X9X5._ Z 1 * ; 5 < z v g a 9 a 6 . X D Z..X{.).[.n.y.t.t.a.A.T.!.[.[.tX).rX-X X[.~.!.!.T.!./.~.[.^.n.~.z ",
"y }.qX.Xt.$.v.$.V.=X7X0XqX6._ F w + ; 5 5 z J b g 9 a w . X N t.A.Z.n.a.y.y.a.A.A.T.!.~.~.[.8X}.aX-X X].R.S.S.S.~.[.^.^. XE.n.l ",
"y {.qX.Xt.%.m.4.l.<X7X0X.X .J C t X & 5 5 c ] C g 0 f t . + N >.s.s.s.a.b.n.S.!.!.~.].[.~.[.aX3X0X[.Q.~.S.n.A.!.^.^.~.^.(. X[.M ",
"e '.7X}.t.+.v.#.j.<X~.R.s.} _ J N * & 5 5 j } Z a 8 f t . + c  .n.A.a.a.A.!.~.~.~.~.~.[.[.{.tX9X9Xm.v.S.S.T.!.[.[.^.~.^.^.^.8XN ",
"w R.qX.Xt.` N.8.j.#Xn.n.R.y.} Y Z 6 X < q u  .A 9 3 0 t X 5 V  .a.T.n.a.T.!.~.].].~.!.T.R.[.rXgX0Xb.b.S.R.'..X8X;X%X X7XuXyX%Xc ",
"q A.[.A.] E l.9.q.#X~.A.].s.} Y Z x X - < w Q Z 9 3 8 t + N _ ] S.~.~.!.~.!.!.[.].!.T.n.S.[.aXjX8Xb.A.{.4XsXnXhXfXkXfXiX:X>XQ.x ",
"q t.S.A. .^ l.p.*.#X~.A.!.t.} J n N & * ; 5 F Y C g 0 g 1 N  .,.R.].[.[.[.~. X[.~.S.n.b.S.[.aXR.9X'.9XzXMXnXnXlXkXiX2X,X=XI.j.j ",
"e S.%X[.6.^ l.x.&.$X[.A.!.y.} H h n 6 X - ; G  .] H v n Z A 0.n.!.^.[.^.^.~.~.!.n.x.b.n.S.{.aX`.gXgXnXnXjXjXkXyX=X>X>X>X*.+.E.z ",
"y !.%X.X5.^ j.8.%.oX(.n.R.5.Y n 9 v z X - - D 9.5.} J S / ` *.m.!.T.E.T.A.n.n.n.n.n.a.Z.'.0XnXMXbXjXlXhXtXyX&XOX#X&X=X%X0.E.^.z ",
"y ~.%X X>.T j.9.o.Y.E.6.4.) A b f h Z ; - - N a.a.t._ K / *.j.v.T.S.S.A.D..X9X9X9X{.3XaXjXlXnXlXjXkXiXyXOXQ.OXOX^.:X;X^.(.;X%Xz ",
"y ~.%X X>.Y &.0.+.Y.m.6.>.} _ H n n F 6 & - l a.A.a.#.A K T %.k.n.n.n.R.rXnXcXgXzXnXjXnXjXfXuXyXyX2X%X@XXX@XOXP.^.7X;X;X;X%X^.z ",
"e R.^.T.] Z ..v.7.I.P.5.9.5.>.' A Z F 6 % - e s.T.A.s.| T S A ` ,.b.b.R.hXaX3X0XsXMXlXuX:XQ.OX@X@XXXXX#X&XQ.^.~.*X;X:X:X*X%X^.z ",
"w 8.p.9.| H ^ Q.W.Y.W.p.b.a.y.>._ A F u * & 6 e.A.a.a.d.a.a.y.p.s.p.n.].dXdXrXlXmXmXuXQ.P.N.V.oXoXoX$X=X(.^.]. X%X%X*X*X(. X^.z ",
"q 5.w.p.9.} ` XXXXXXP.m.T.T.n.t.} J Z x + & 6  .a.s.s.s.a.n.n.b.b.b.b.!.fXlXfXtX0X8X:XU.U.Y.Y.$X1XXXl.E.^.^.^. X X(.%X*X X(.[.z ",
"e p.x.y.p.y.4.n.x.x.E.!.'.R.F.a.4._ Z x * & 1 _ a.a.p.s.n.R.R.R.m.x.9.b.7XtX:X*X*X*X%XQ.I.oX#XXX,.H +.E././.~.~. X X%X%X;X%X[.B ",
"e b.v.b.m.m.m.x.n.T./.~.!.!.R.n.5._ Z a + & f ] 0.p.m.#.} T.~.!.M.0.7.0.%X;X%X%X%X@XOXXXI.k.T h t ) S.T.E./.~.^.[.%X/.%X*X%X!.B ",
"e A.R.R.T.T.E.E.E.E.!.R.S.A.n.s.u. .G g + b s.b.w.p.T.t.A #.R.n.p.n.n.9.^. X X X%X%XB.O.n 7 * u ' A.A.R.~.^.~.^. X%X%X*X%X*X^.z ",
"q ;.<.<.<.<.<.<.<.;.;.;.:.:.[ [ [ ' D u * V 1.;.' [ e.<.Q ' ;.[ ;.;.<.:.e.e.e.e.e.e.M + . * q D :.;.<.e.e.<.e.e.e.s.s.i.u.i.e.u ",
". % % % % % % % # # # # # # # # # # o .   X % % o # % % % % % # % % % % % = & & & % .       . # % % & = % # = = = = % % = = & . ",
"                                                                                                                                "
};
