/* XPM */
static char *images_64x64[] = {
/* columns rows colors chars-per-pixel */
"64 64 253 2 ",
"   c #7F1F1C",
".  c #6F331D",
"X  c #772B25",
"o  c #6E3426",
"O  c #742F25",
"+  c #7D7430",
"@  c #5E734D",
"#  c #6C6D50",
"$  c #4F7C76",
"%  c #737370",
"&  c #66575C",
"*  c #8B371F",
"=  c #8F2B1D",
"-  c #B5251F",
";  c #B83C1E",
":  c #A82D1C",
">  c #BB1E25",
",  c #B51E23",
"<  c #AD1F23",
"1  c #882923",
"2  c #992826",
"3  c #8A3728",
"4  c #9D3B2B",
"5  c #963827",
"6  c #973832",
"7  c #8F3633",
"8  c #A82626",
"9  c #B42324",
"0  c #BD2324",
"q  c #B72A28",
"w  c #A63628",
"e  c #B73726",
"r  c #B53735",
"t  c #B23237",
"y  c #871D1A",
"u  c #CE391D",
"i  c #C31E26",
"p  c #CC1E26",
"a  c #CE1E29",
"s  c #C41F29",
"d  c #D11E27",
"f  c #D01E2A",
"g  c #C52226",
"h  c #CD2226",
"j  c #C42B25",
"k  c #CC2A26",
"l  c #C3232A",
"z  c #CC212A",
"x  c #C52B2A",
"c  c #CD2C29",
"v  c #D22227",
"b  c #D2222A",
"n  c #D32A29",
"m  c #D62C2A",
"M  c #C33424",
"N  c #CB3425",
"B  c #CC3C25",
"V  c #CB3C2A",
"C  c #C63727",
"Z  c #D13426",
"A  c #D4332B",
"S  c #DA332C",
"D  c #D63C2B",
"F  c #DA3B2C",
"G  c #D43A26",
"H  c #CA3933",
"J  c #DC3A31",
"K  c #D63230",
"L  c #D82F30",
"P  c #EA3C33",
"I  c #E22A2B",
"U  c #A7461D",
"Y  c #B7551E",
"T  c #AB4A1F",
"R  c #B9701C",
"E  c #92442A",
"W  c #9C4429",
"Q  c #974726",
"!  c #944D2D",
"~  c #A64828",
"^  c #B94826",
"/  c #AD5525",
"(  c #AB592B",
")  c #A7552A",
"_  c #BA5323",
"`  c #BB542C",
"'  c #B45C2C",
"]  c #B85827",
"[  c #AC5932",
"{  c #B55733",
"}  c #AC4837",
"|  c #8F752A",
" . c #A66328",
".. c #B96326",
"X. c #B07331",
"o. c #8B681F",
"O. c #CA581D",
"+. c #C7411E",
"@. c #D3681F",
"#. c #C6751D",
"$. c #D4791D",
"%. c #CA671C",
"&. c #C54A23",
"*. c #CA4B23",
"=. c #CC432B",
"-. c #C74829",
";. c #D14D24",
":. c #D3442B",
">. c #DB442C",
",. c #D34C2B",
"<. c #DA4D2C",
"1. c #D54825",
"2. c #C45324",
"3. c #CD5524",
"4. c #CD542B",
"5. c #C45C2C",
"6. c #CB5A2D",
"7. c #C45828",
"8. c #D35424",
"9. c #D45B25",
"0. c #D3532D",
"q. c #DB552C",
"w. c #D45B2B",
"e. c #DA5C2B",
"r. c #D95626",
"t. c #C84C31",
"y. c #DC4A31",
"u. c #D74832",
"i. c #CB5833",
"p. c #D55432",
"a. c #DB5533",
"s. c #DC5B33",
"d. c #D45B33",
"f. c #E1482B",
"g. c #E35B2E",
"h. c #E5552D",
"j. c #E94434",
"k. c #F34537",
"l. c #E55232",
"z. c #E35C32",
"x. c #EA5C34",
"c. c #C76628",
"v. c #D46323",
"b. c #D3632D",
"n. c #DB632B",
"m. c #DC6B2D",
"M. c #D76926",
"N. c #C67825",
"B. c #D97827",
"V. c #C76233",
"C. c #D46132",
"Z. c #DC6332",
"A. c #DD6B35",
"S. c #D66738",
"D. c #DC7831",
"F. c #C87C3B",
"G. c #E3672D",
"H. c #E37A2D",
"J. c #E26533",
"K. c #E26C34",
"L. c #EA6436",
"P. c #E57634",
"I. c #F06A32",
"U. c #B63445",
"Y. c #B74E4A",
"T. c #907E52",
"R. c #915169",
"E. c #956A70",
"W. c #AB725C",
"Q. c #CB4C47",
"!. c #D46941",
"~. c #77972B",
"^. c #699B39",
"/. c #748E28",
"(. c #7BA72C",
"). c #78A535",
"_. c #5F8A3D",
"`. c #5A8F5B",
"'. c #68954D",
"]. c #73A64B",
"[. c #578D73",
"{. c #629867",
"}. c #798D7A",
"|. c #5FA17F",
" X c #6BA667",
".X c #6EA76C",
"XX c #87992D",
"oX c #8F872B",
"OX c #A4942E",
"+X c #B38B29",
"@X c #87A82C",
"#X c #98B72C",
"$X c #86AC36",
"%X c #87B234",
"&X c #92B02E",
"*X c #ADAF27",
"=X c #C78A1C",
"-X c #D59B1D",
";X c #D0921C",
":X c #E09F1E",
">X c #DDAA1E",
",X c #E1AB1E",
"<X c #E9B01E",
"1X c #CA8823",
"2X c #D48826",
"3X c #C89224",
"4X c #D79622",
"5X c #CB9137",
"6X c #E68828",
"7X c #E89826",
"8X c #F28A2F",
"9X c #D8A723",
"0X c #DEB324",
"qX c #C8BB2A",
"wX c #E5A723",
"eX c #E7B822",
"rX c #F3AB2D",
"tX c #D9C321",
"yX c #C0C429",
"uX c #FBDA25",
"iX c #F1C92A",
"pX c #FDE623",
"aX c #FDE924",
"sX c #FBE628",
"dX c #F7DA1E",
"fX c #8A9350",
"gX c #979961",
"hX c #717E8C",
"jX c #8A6F87",
"kX c #559686",
"lX c #528B90",
"zX c #6D8899",
"xX c #5AA094",
"cX c #63A68A",
"vX c #72AB8F",
"bX c #5593B2",
"nX c #6C91B2",
"mX c #58A9B3",
"MX c #6CADAA",
"NX c #5499C8",
"BX c #6797C5",
"VX c #56A9CC",
"CX c #4DA7D6",
"ZX c #51ACD9",
"AX c #4DA0C9",
"SX c #63A9D3",
"DX c #53AEE3",
"FX c #55B4E6",
"GX c #54BBF3",
"HX c #4CB0EA",
"JX c #60B7E3",
"KX c #59C3F4",
"LX c #8C898F",
/* pixels */
"f f f f f f f f f f f f f f f f f f f f f f f f f f f f f f f f f f f f f f f f f f f f f f f f f f f f f f f f f f f f f f f f ",
"f f f f f f f f f f f f f f f f f f f f f f f f f f f f f f f f f f f f f f f f f f f f f f f f f f f f f f f f f f f f f f f f ",
"f f f f f f f f f f f f f f f f f f f f f f f f f f f f f f f f f f f f f f f f f f f f f f f f f f f f f f f f f f f f f f f f ",
"f f f f f f f f f f f f f f f f f f f f f f f f f a a f f f f f f f f f f f f f f f f f f f f f f f f f f f f f f f f f f f f f ",
"f f f f f f f f f f f f f f f f f f f f f f f f a p g g h f f a a a f f a p p a a f a f f f f f f f f f f f f f f f f f f f f f ",
"f f f f f f f f f f f f f f f f f f f f f f f b e R =X=Xc.k f f a a b j Y #.#.&.k b a a f f f f f f f f f f f f f f f f f f f f ",
"f f f f f f f f f f f f f f a f f f f f f f b e -X=XY ] >X$.h f a f 0 N.>X=X#.;X$.k f f f f f f a f f f f f f f f f f f f f f f ",
"f f f f f f f f f f f f f a p i - 0 h d f f g #.4X- , i V _ j a f a Y >X^ < 0 M wXM.a f f h 0 h v d f f f f f f f f f f f f f f ",
"f f f f f f f f f f f f d i U R ;X4Xc.c a f j :XO., a a z 0 > p f j 4X$.- p f v 2.2.h a b j N.N.C h f f f f f f f f f f f f f f ",
"f f f f f f f f f f f a h _ >X..^ %.1XM i f M ,XO.g f b a a a a b C eXv.i f f a i 0 g f v 5.eX2X4XB.G b f f f f f f f f f f f f ",
"f f f f f f f f f f f f M 9XM.q > h 9 9 i f k wXH.b f f h e ; g f N <XO.p f f f a b a f q 9XB.x -.4X7XZ a f f f f f f f f f f f ",
"f f f f f f f f f f f f =.eX*.s f b s a h h b 2XwXZ h p e 9X7.i f k -X@.h f p e e g b h R >XM h I 4.eX1.p f f f f f f f f f f f ",
"f f f f f f f f f f f f C <X8.v f f d e _ k f G wX4XO._ 3X3Xq i f f 4.,Xv.^ _ 4X#.9 p e 0X,X@.C j N.0XC p f f f f f f f f f f f ",
"f f f f f f f f f f f f c 7X6Xn f f a O.-Xj a v C #.=X=X..w > f f f v &.1X-X;XN.q 0 l N.4X2.1X>X-X0Xc.q a f f f f f f f f f f f ",
"f f f f f f f f f f f f v 8.eX9.h p q 3X#.9 a a a > 9 9 , > a f f f h z l e q 9 i v ^ 0X2.0 x ^ ..^ q l f f f f f f f f f f f f ",
"f f f f f f f f f f f f f h @.,X2X#.=X1Xe > f f a a a a f f a a a f a a h p p h f b C 5.q s f p 0 0 s f a f f f f f f f f f f f ",
"f f f f f f f f f f f f f d z ^ #.#.Y 8 > a a a a b v h h h a G Z h k k h h f f f f h l g f f f f f f f f f f f f f f f f f f f ",
"f f f f f f f f f f f f f f f z 0 0 > i a a a b n S F G k j N @.v.Z N M M N k k h h b a a f f f f f f f f f f f f f f f f f f f ",
"f f f f f f f f f f f f f f f f f f f f b b m S G :.=.,.m 8.%.u +.M.8.h B =.B B V c v b f a f f f f f f f f f f f f f f f f f f ",
"f f f f f f f f f f f f f f f f f f f v n m Z N 1.e.C.<.D n 9.u u O.Z Z =.e.e.,.:.F A n b f f f f f f f f f f f f f f f f f f f ",
"f f f f f f f f f f f f f f f f a b n G r.N B 8.3.*.=.V c b B.M.G.v.a n V ,.e.b.e.<.u.a.J m a a f f f f f f f f f f f f f f f f ",
"f f f f f f f f f f f f f f f a b n 1.9.9.1.8.*.&.M M N h f D n m G f v x C :.s.b.C.q.A.C.y.L f a f f f f f f f f f f f f f f f ",
"f f f f f f f f f f f f f f f v >.D 9.&.; *.3.C M x h h f f h z z a f f a g x C 4.b.m.a.n.e.A v a f f f f f f f f f f f f f f f ",
"f f f f f f f f f f f f f f a ,.e.p.C.,.8.3.; 0 j b f z e  .| | # % R.t a d h N M *.m.n.0.w.-.:.Z a f f f f f f f f f f f f f f ",
"f f f f f f f f f f f f f f Z 3.r.9.0.p.s.,.Z n f h ~ | '.`.'.`.% bXkX@ & U.f b A C &.9.;.8.9.e.r.n f f f f f f f f f f f f f f ",
"f f f f f f f f f f f a f v <.4.8.w.;.G.w.F m b z ! ~.^.`.lX$ lXzX% bXkX^.# Y.b b S :.9.M.*.9.3.n.>.b a f f f f f f f f f f f f ",
"f f f f f f f f f f f f f A w.9.v.r.r.v.,.D f h E.kX[.mX[.`._.lXDXhXE.lX^.~.'.} f m y.s.6XM.9.9.3.;.n f f f f f f f f f f f f f ",
"f f f f f f f f f f f a v :.M.8.3.*.8.8.;.n f R.DXCXVXMXgXgX{.AXCXAX# [ ~.&X*XoXq b F K.D.D.n.Z.4.b.D b a f f f f f f f f f f f ",
"f f f f f f f f f f f f n ;.M.8.8.0.e.v.^ 9 t nXGXCX}.tXuX3X# ZXVXZX[. .X.@XtX*Xo.s q i.P.P.K.A.A.6XZ.m f f f f f f f f f f f f ",
"f f f f f f f f f f a z N M.3.3.;.e.w.2.w 8 R.FXDXgXiXdX=Xo $ cX{.|.].oXc.XXyXtXXXw w ^ m.K.K.A.K.P.P.L f f f f f f f f f f f f ",
"f f f f f f f f f f a 8 e 2.M.8.3.r.9._ = 2 nXHXbXqXuXR / fXkX`.).(.(./.N.OX#XtX@X! w w b.Z.Z.Z.Z.D.5.e l f f f f f f f f f f f ",
"f f f f f f f f f f p y ^ H.G.0.;.r.2.e : r VXHXGXvXo.. o.3XfX].%X%X@X~.R +X@XqX&X& 3 3 ` 6.J.e.e.D.H.W 8 f f f f f f f f f f f ",
"f f f f f f f f f f a y * 2.w.m.e.e.q.C 2 Q.SXGXGXHXlX@ {.T.-XOX%X%X%X~.1X3X(.#X%X# 4 O ' b.b.w.m.e.b.3 8 f f f f f f f f f f f ",
"f f f f f f f f f a f 8 * 5 ; 8.r.1.-.w : Y.SXKXCXcX X'.cXkX| 4XfX X.X/.4X+X).$X).+ H 3 ( w.n.G.m.t.~ 3 z f f f f f f f f f f f ",
"f f f f f f f f f f f 2 ) _ *.1.;.; : = - 7 NXGXxX).(.(.).}.hXgX5XfX X| wXOX). XkX@ r w ~ 4.s.K.J.5./ 5 l f f f f f f f f f f f ",
"f f f f f f f f f f f 2 5 t.a.l.q._ T * 9 1 nXHXxX).~./.| v.!.fX+X1XoX4X4XXX).mXFX& e e W _ 4.q.<.&.~ O 9 f f f f f f f f f f f ",
"f f f f f f f f f f f q ) V.S.L.z.0./ 3 l v E.FXmX]./.X.c.|  .$.#.6X6X2XgX{.'.FXBXU.S 8 * U ^ 8.q.4.] 5 l f f f f f f f f f f f ",
"f f f f f f f f f f f 9 ) ..b.z.g.d...E q f t BXGXlXX.7XOX@X@XOX5X5XM.F.SXVXkXDXjXf b 8 Q ` w.x.x.6...~ z f f f f f f f f f f f ",
"f f f f f f f f a a f 8 O ^ <.h.q.t.] ) q F b E.GXbXW.X.@X%X#X#X$X.X}.5XgXJXDXnXQ.b S w ( V.s.x.L.S.[ 7 z f f f f f f f f f f f ",
"f f f f f f f f f f f s 5 ~ ^ 0.g.q.` Q 2 F A u.LXZXDXcX$X%X%X#X$XvXFXzXLXJXBXQ.S A A 4 ( V.K.P.S.5.[ q f f f f f f f f f f f f ",
"f f f f f f f f f f f a ~ ( ` w.e.w.' ) 8 b F S p.jXFXmX).#X#X$XmXKXKXGXKXnXY.F m J l [ N.m.J.Z.V.' ) l f f f f f f f f f f f f ",
"f f f f f f f f f f f a 2 3 ^ <.q.0.-.~ 1 > n F <.p.W.zX].&X].cXmXVXDXBXLXQ.q.F J n 8 W ` w.s.s.6.~ X 0 f f f f f f f f f f f f ",
"f f f f f f f f f f f f 9 1 ~ -.q.h.>.^ * 2 F >.e.e.:.i.X.X.}.nXzXLXE.Y.0.<.a.l.S x ~ / 4.g.K.d.` E 8 h a f f f f f f f f f f f ",
"f f f f f f f f f f f f f 8 ! ] ,.<.1._ ~ 1 M <.e.e.,.,.,.0.6.6.t.4.0.4.p.p.s.a.y.w ~ ' C.l.z.4./ w s f f f f f f f f f f f f f ",
"f f f f f f f f f f f f f > * U G f.<.;.t.W Q =.e.w.e.,.0.0.4.4.,.,.-.4.0.a.s.p.r E ` w.Z.z.s.6.E 8 f f f f f f f f f f f f f f ",
"f f f f f f f f f f f a f p 2 1 ^ 3.n.G.n.c. .w :.Z.b.0.e.H.8X7X7X6Xn.0.0.s.p.e ) ' i.K.A.b.7.} 6 l f f f f f f f f f f f f f f ",
"f f f f f f f f f f f a f f a w ( ] e.g.n.c.~ 3 5 p.Z.8XiXuXpXaXaXpXuXrXA.Z.^ 3 W 7.C.z.Z.i...~ x f f f f f f f f f f f f f f f ",
"f f f f f f f f f f f f f f f q ) ' <.f.e.q.-.~ E w K.uXaXpXpXaXaXpXaXpXrXt.Q ( 5.s.J.J.C.V. .~ a b f f f f f f f f f f f f f f ",
"f f f f f f f f f f f f f f f p 1 3 ^ *.n.g.0... .3 5 6XuXaXpXaXaXpXaXiXV.3 E ( 5.z.Z.S.{ [ 3 q a f f f f f f f f f f f f f f f ",
"f f f f f f f f f f f f f f f f g 4 ) 2.q.q.0.4.0._ 5 ~ rXpXpXaXaXpXiXS.) ' i.e.b.d.!.S.( W q f f f f f f f f f f f f f f f f f ",
"f f f f f f f f f f f f f f f f f q E W -.,.n.J.l.5./ 5 ~ 7XuXaXpXeX/ 7 ( ' a.J.K.p.i.{ E 2 a f f f f f f f f f f f f f f f f f ",
"f f f f f f f f f f f f f f f f f p 2 X ~ ] w.h.l.4.-.e 1 ^ 8X8X8Xe.3 ) i.,.a.J.Z.i.{ 4 2 l f f f f f f f f f f f f f f f f f f ",
"f f f f f f f f f f f f f f f f f f f 0 5 / 5.<.f.y.w / ) t.l.k.k.<.` V.3 t.j.j.<.` [ r a f f f f f f f f f f f f f f f f f f f ",
"f f f f f f f f f f f f f f f f f f f f 9 q x j.P q 3 ) ) -.z.x.x.0.( ( Q 5 P k.J k x a f f f f f f f f f f f f f f f f f f f f ",
"f f f f f f f f f f f f f f f f f f f f f f I k.P 2 o Q / 7.Z.L.z.6./ E o O J k.j.b f f f f f f f f f f f f f f f f f f f f f f ",
"f f f f f f f f f f f f f f f f f f f f a v e w A e 1 4 :.s.L.I.x.y.=.e 2 6 H H r L a f f f f f f f f f f f f f f f f f f f f f ",
"f f f f f f f f f f f f f f f f f f f f a n 4 5 J >.5 3 h.L.I.L.L.P.H.t.4 7.u.H 4 K f f f f f f f f f f f f f f f f f f f f f f ",
"f f f f f f f f f f f f f f f f f f f f f f n A b F x.z.I.L.f.n D G.P.P.I.g.n b b f f f f f f f f f f f f f f f f f f f f f f f ",
"f f f f f f f f f f f f f f f f f f f f f f f f f n z.h.F n f f f f n >.h.A f a a f f f f f f f f f f f f f f f f f f f f f f f ",
"f f f f f f f f f f f f f f f f f f f f f f f f f f v f f a a f f f f f f f f f f f f f f f f f f f f f f f f f f f f f f f f f ",
"f f f f f f f f f f f f f f f f f f f f f f f f f f f f f f f f f f f f f f f f f f f f f f f f f f f f f f f f f f f f f f f f ",
"f f f f f f f f f f f f f f f f f f f f f f f f f f f f f f f f f f f f f f f f f f f f f f f f f f f f f f f f f f f f f f f f ",
"f f f f f f f f f f f f f f f f f f f f f f f f f f f f f f f f f f f f f f f f f f f f f f f f f f f f f f f f f f f f f f f f ",
"f f f f f f f f f f f f f f f f f f f f f f f f f f f f f f f f f f f f f f f f f f f f f f f f f f f f f f f f f f f f f f f f "
};
